<svg xmlns="http://www.w3.org/2000/svg" data-name="Слой 1" viewBox="0 0 100 125" x="0px" y="0px"><title>autumn_Монтажная область 1_Монтажная область 1</title><path d="M67.39173,45.25971c-1.33959.578-2.205.91417-3.03777,1.31759q-3.89232,1.88542-7.75959,3.8222c-.61838.31146-1.16518.7624-1.75743,1.129-1.00874.62446-.94731,1.35281-.48242,2.36339a50.68444,50.68444,0,0,1,2.64032,6.5026A12.75777,12.75777,0,0,1,55.515,70.66405a65.386,65.386,0,0,1-4.7423,7.2748c-1.82662,2.38147-4.62824,3.4569-7.3416,4.512-1.45464.56562-3.02209.837-4.48872,1.37685-1.45219.53451-1.76614-.24567-1.67914-1.35909.2959-3.78842.82984-7.565.97-11.35727.21822-5.90334,3.235-10.53846,6.4173-15.13429a18.60086,18.60086,0,0,1,1.48767-1.52611,15.4209,15.4209,0,0,0,.93733-1.29718,5.036,5.036,0,0,0-1.693-.52733,7.81249,7.81249,0,0,0-6.43289,3.69331c-4.02334,6.406-10.13964,8.7957-17.34767,9.049A57.24611,57.24611,0,0,1,4.21814,63.30627C3.055,62.984,2.58466,62.26509,3.46263,61.21066c2.53887-3.049,4.98-6.21183,8.56937-8.15627a90.75041,90.75041,0,0,1,8.6466-4.53812,11.50773,11.50773,0,0,1,6.02568-.8618c4.5382.80868,8.93979,2.368,13.47042,3.24067a18.63577,18.63577,0,0,0,9.81792-.70249l.06589-.50625c-2.03425-.56344-4.07345-1.10974-6.10171-1.69393-4.029-1.16043-7.47006-3.35374-10.897-5.7392-3.995-2.7809-5.41435-6.877-6.84726-11.10435-.163-.48073-.804-.78787-1.01306-1.26722a16.17064,16.17064,0,0,1-.645-2.27993,5.80862,5.80862,0,0,1,1.91346-.28517c3.9971.805,8.10592,1.33092,11.92235,2.67479a38.83588,38.83588,0,0,1,9.50432,5.0963c3.94327,2.81923,5.207,7.33955,6.21313,11.86091.14992.67374.39724,1.3258.754,2.49387,4.72879-2.39445,9.21279-4.665,13.69681-6.93549l-.12249-.59337c-.51386-.17548-1.03075-.34259-1.54111-.52773a37.61818,37.61818,0,0,1-11.431-7.11309c-2.42819-2.0698-3.02568-5.196-3.50222-8.27292-.31271-2.01915-.90638-3.99347-1.30136-6.00219a2.08375,2.08375,0,0,1,.23418-1.45427c.14043-.20276.87683-.16191,1.25014-.00557,1.79749.75281,3.61146,1.49131,5.32761,2.40716,2.24911,1.20025,4.46,2.48784,6.59915,3.874a11.41352,11.41352,0,0,1,5.14356,6.35667c.86064,2.93286,1.76155,5.85391,2.71583,9.01535l9.0584-6.50411A63.15651,63.15651,0,0,0,74.163,29.23775c-3.31932-1.6101-4.2041-4.4189-4.61123-7.64074-.16349-1.29378-.32292-2.58874-.44617-3.88677-.165-1.73809.266-2.04959,1.84337-1.39072,2.40618,1.00507,4.87864,1.87611,7.2076,3.03576,3.91077,1.94725,7.11224,4.57794,7.58427,10.01268,2.40147-2.60907,4.57141-4.76548,6.47954-7.13291.83147-1.03161,1.10945-2.50347,1.67467-3.75923.1591-.35345.38881-.82425.68968-.92176a1.309,1.309,0,0,1,1.0497.393,5.107,5.107,0,0,1,1.1464,1.57278c.28928.70377.483,1.52237-.82944,1.50628-.32572-.004-.71062.36283-.97693.64532q-4.86,5.15562-9.68864,10.34069c-.318.3404-.61474.70079-.94541,1.07949.99789,1.15817,1.96548,2.26218,2.91259,3.38347,6.00513,7.10971,4.37234,14.35885.26549,21.32157-.7438,1.261-1.52618,1.16444-2.20224-.06888-1.13243-2.06591-2.46187-4.04435-3.38979-6.19694-1.33264-3.09138-2.40517-6.28249-1.78465-9.78537.33521-1.89213.44971-3.82335.68553-5.93133-3.37977,2.4529-6.6436,4.82167-10.02662,7.277,6.21218,6.11221,9.29116,12.96217,5.73652,21.41718-1.82438,4.3395-4.41315,7.069-8.31038,7.487C63.90425,63.42929,64.00613,54.65562,67.39173,45.25971Zm17.7011-2.88729c.79944,1.44322,1.54532,2.92014,2.42253,4.31443a14.60054,14.60054,0,0,0,1.91994,1.96424V46.19467c-2.33-.27519-3.061-2.35442-4.35727-3.79993l-2.798-2.999C82.0658,41.676,83.30553,42.81037,85.09283,42.37242ZM75.97564,58.97133c-.04914-.7166.17678-1.65533-.19288-2.11306-2.11229-2.61557-4.37618-5.10827-6.55769-7.669a5.893,5.893,0,0,1-.53357-1.50419c2.91423,1.76523,3.58443,5.23231,7.18981,6.22463A13.65838,13.65838,0,0,0,74.54849,51.475c-1.06681-1.18972-2.33311-2.20319-3.37216-3.41379-.37833-.4408-.34106-1.23714-.49713-1.87036-.07929-.32177-.07036-.76209-.27788-.92822a1.04073,1.04073,0,0,0-.95347-.04609c-1.50137.88364-1.81506,4.92716-.62262,6.16654a19.11022,19.11022,0,0,1,1.80145,2.58588H69.005c-.35307-.59326-.87564-1.47135-1.451-2.43816-.70337,1.7793,1.08473,4.9194,3.47159,6.29527l-.71776-1.90325,4.87174,6.41254.64663-.20135Zm-6.93773,5.706L67.66927,63.377l-.496.27184q1.09822,2.85988,2.19641,5.71979l.33382-.10967-.31529-1.61412,2.04058.92775.19812-.477L69.95027,65.4476l3.1285,1.64947,2.21284-3.71831c-3.96233-1.68575-5.096-5.92787-8.53893-7.96652a6.40635,6.40635,0,0,0,.43063,3.02589,15.9493,15.9493,0,0,0,1.9509,2.59212l-.21207.25094L66.9876,59.91344l-.32906.24208Q67.84822,62.41644,69.03791,64.67733ZM45.75374,71.98319q-2.18172-3.04522-4.368-6.09675c-.4064.65857-.99785,1.15123-.17336,2.3961A36.23687,36.23687,0,0,1,43.853,74.24662l-.22427.13475L40.788,69.741c-1.66563,2.2963.81936,3.89333.80146,5.93114l-1.17684-.82475c-.56389,1.79684.19251,4.69888,1.46916,5.58145.29681.20519,1.1464.19788,1.22523.03633.52152-1.06866,1.61488-.74518,2.39308-1.13628.95879-.48187,1.86375-1.07087,2.7705-1.601a24.24368,24.24368,0,0,1-1.20448-2.17858c-.49034-1.17705-.89753-2.38874-1.33943-3.586l4.05869,5.28206c1.28132-2.26172,2.45964-4.34167,3.638-6.42162l.42282-.41085c1.88279-3.236,2.68529-6.60648,1.48046-10.30875-.33436-1.0274-1.64364-1.50838-1.12442-3.1682.27887-.89146-1.116-2.49288-2.07777-3.45034-.23023-.22916-1.75377.81769-2.6677,1.30534a14.85,14.85,0,0,0-2.44193,1.43049,1.74726,1.74726,0,0,0-.53752,1.45634,17.25365,17.25365,0,0,0,1.26636,3.28279c1.04383,2.11363,2.17279,4.18521,3.26656,6.27421a5.20969,5.20969,0,0,1-1.11187-.983C48.35463,63.78038,46.86364,61.276,45.257,58.6204l-1.09187,1.19779c1.166,2.313,2.3108,4.41768,3.3,6.59309.99726,2.19306,3.6842,3.32922,3.976,6.51394-2.67418-1.47512-3.052-4.0299-4.26233-5.96717-1.23939-1.9838-2.39182-4.02192-3.84-6.47231-.39337,1.43807-1.241,2.77512-.93072,3.73978A78.95381,78.95381,0,0,0,45.75374,71.98319Zm-28.12255-9.4688q-1.42653-.60513-2.85284-1.2108-1.424-.60859-2.845-1.22426l-.18848.48059c2.0774.93451,3.64106,3.03688,6.45306,2.73942l-.61847-.8274c3.78473,1.70434,7.50862.79554,11.57366.10152-.41945-.448-.483-.56-.57825-.60547-.09877-.0471-.29062-.084-.33528-.03267-1.34952,1.54994-2.481.25941-3.55741-.35627-1.47684-.84468-2.75242-2.08652-4.28612-2.77559-2.14853-.9653-4.45534-1.57839-6.69442-2.34215l.047.03882L13.382,54.27841l5.26054,2.43993.109-.19056L15.97438,54.5097l.34737-.60848a9.26888,9.26888,0,0,1,1.63432.57428c3.93325,2.25553,7.16586,5.7071,11.73762,6.86887a7.98463,7.98463,0,0,0,1.23718.121V60.23049c2.28353.819,3.4881-.66256,4.845-2.203l-4.11573-2.36266a3.64482,3.64482,0,0,0,1.17941,1.36467,10.54052,10.54052,0,0,1,.95807,1.17017c-.56649.02272-1.25807.26861-1.67947.03243q-4.55128-2.55081-8.99769-5.28669a37.08275,37.08275,0,0,1-3.246-2.57514c-1.9643,1.20446-4.20559,2.57876-6.4457,3.9548a17.45357,17.45357,0,0,0-6.688,5.91155c3.031,2.14008,5.5373,3.11242,7.138,2.62318L8.703,60.27362c1.37386-.358.56037-2.76521,2.37367-1.85051C13.36473,59.57735,15.45194,61.12976,17.63119,62.51439ZM35.522,30.412l-.49847.49436q.78671,3.09632,1.57342,6.19265a50.70889,50.70889,0,0,1-2.5548-5.9009c-.12162-.30725-.53761-.498-.81746-.74261-.15559.33943-.51414.7372-.4359,1.00939.94569,3.28974,1.89936,6.57991,2.98806,9.82394A9.83518,9.83518,0,0,0,37.35524,43.561l.52408-.4474c-.02795-.54019-.05589-1.08037-.09569-1.85029,1.018,1.23542.54791,3.48193,2.93575,3.22068V42.5837l.58608-.19c.25223.63478.89308,1.48476.68324,1.86364-.60952,1.10068.00768,1.44528.76788,1.654,2.673.73407,5.35845,1.42969,8.06081,2.0451.73861.1682,1.69214.11269,1.53631-1.09343a15.56178,15.56178,0,0,0-5.40332-10.22464c-.08078.62823-.2773,1.07-.15655,1.39328.806,2.15736,1.68172,4.28861,2.5288,6.43071a3.7709,3.7709,0,0,1,.27354.91525c.00751.0625-.44471.29261-.52477.23243a1.73169,1.73169,0,0,1-.62851-.74316c-.69568-2.12461-1.35631-4.26085-2.01211-6.3983-.30939-1.00849-.26959-2.569-.92705-2.95055C42.27593,33.64471,38.867,32.08347,35.522,30.412ZM30.04279,49.76048l-.37246.80069c2.05645,1.11981,4.11288,2.23961,6.55294,3.56829-.63622.08137-1.16178.32437-1.45385.15785a63.5405,63.5405,0,0,1-6.35174-3.86018,6.187,6.187,0,0,0-7.517.31151l6.90439,4.40128c.06645-1.11257.10708-1.7929.15148-2.5361l6.57879,3.69978.16552-.20819L33.82174,55.036c1.4812.11207,2.33529,2.27864,3.77561.824a36.39528,36.39528,0,0,0,2.66188-3.41845c-.72612-.14551-1.003-.2987-1.17016-.21967-2.089.988-3.677-.02531-5.382-1.10568A17.98747,17.98747,0,0,0,30.04279,49.76048Zm28.199-26.50391c-.27027.628-.744,1.1887-.692,1.6955.3365,3.28158.73236,6.5604,1.26244,9.81508.07671.4711.97713.80805,1.80035,1.44068-1.01064-7.69094-1.03332-9.72148-.09514-10.96316a4.13892,4.13892,0,0,1,.1953.6603c.33383,3.2291.59995,6.46694,1.02823,9.68326a10.08292,10.08292,0,0,0,1.32086,2.59955c.26516-.7504.38649-.91915.37018-1.07334-.37372-3.53463-.74633-7.06961-1.16991-10.59843a1.809,1.809,0,0,0-.62151-1.16109C60.58482,24.61564,59.44994,23.98929,58.24182,23.25657Zm5.28239,3.43486-.687.23182c.523,3.26286.96875,6.54059,1.59416,9.78368.47092,2.442,2.50942,3.59525,5.095,3.06518.16375-2.55419-.08379-5.01884-1.73305-7.18885q.596,3.40657,1.192,6.81314l-.49415.15115a4.90746,4.90746,0,0,1-.4527-1.07584,59.20473,59.20473,0,0,1-1.02627-7.02C66.90588,28.89511,65.1953,27.876,63.52421,26.69143ZM75.701,22.41569l.55872-.02585c.5499,2.439.27023,5.11576,2.08522,7.22288-.148-2.71422-.29594-5.42845-.4629-8.4912l-3.78759-1.00609c-.34181,3.27131.66468,7.33065,1.87056,7.71144C75.876,26.00318,75.78852,24.20943,75.701,22.41569Zm5.78517,7.94989.41083-.02394.25451-3.49216.48571-.0004c.11822,1.48772.23645,2.97545.38923,4.898,2.07144-3.80637.107-7.404-3.66061-9.36811-1.23737,2.8328.435,5.42116.35244,8.10368l.60328.00269V24.30268l.67784-.02549Q81.24277,27.32138,81.48617,30.36558ZM56.00286,22.41941c0,1.51123-.06427,2.81134.01862,4.102.07781,1.21156.31122,2.41312.47614,3.61908l.29639-.04233c.126-2.40813.25211-4.81626.39562-7.55827L52.79828,20.461c.84527,3.95657,1.57244,7.36036,2.2996,10.76414a15.10619,15.10619,0,0,0-.04468-4.62248C54.687,24.08161,54.80491,23.2378,56.00286,22.41941ZM82.16773,42.276l-.58808.45642c1.03151,3.7793,4.27523,6.03307,6.7726,9.12058l.68594-1.77836C86.59,47.29565,84.37885,44.78582,82.16773,42.276Zm4.19295-3.35221.41387-.40363c-.742-.88447-1.45232-1.79814-2.23516-2.64478-.70974-.76759-1.26457-.65139-1.73151.34786-.80362,1.71977-.02242,3.30784,2.78481,4.93518-.81043-1.50155-1.46263-2.71-2.11485-3.9184l.54351-.30768ZM34.32719,40.80314l.56431-.16168q-2.11637-5.26037-4.23275-10.52073C30.90913,34.049,32.59425,37.4351,34.32719,40.80314ZM73.40673,26.02593c-.27642-6.53173.43662-7.4836-2.34418-7.662C71.79923,20.77179,72.52321,23.13816,73.40673,26.02593Z"/><path d="M53.4233,70.82381c-2.20143-.27464-2.03686-2.15409-2.46374-3.63237q1.44328,1.61076,2.88656,3.22152Z"/><path d="M37.97432,32.23071c.40289,1.65.8058,3.3,1.32612,5.431A6.46707,6.46707,0,0,1,37.27,32.41391Z"/><path d="M41.31491,38.42655,39.76784,34.008l.8172-.24513q.6129,2.27981,1.22584,4.55963Z"/><path d="M50.59173,62.86194c-.52993-1.58116-2.623-2.3087-2.37313-4.31569l.59142-.32817q1.16721,2.16332,2.33438,4.32662Z"/><path d="M52.26921,61.00822q-1.17-2.61127-2.34-5.22255l.77011-.33286q1.05858,2.65626,2.1172,5.31254Z"/><path d="M19.19323,52.90308c1.95692,1.27147,3.78659,2.46027,5.7696,3.74868C21.80641,56.23873,19.33074,54.60989,19.19323,52.90308Z"/><path d="M13.70161,56.46131l4.546,2.47054-.22007.42358L11.2923,56.685l.192-.70978,2.26539.52522Z"/><path d="M43.71559,63.3402a13.20419,13.20419,0,0,1,1.13677,1.39247q2.52956,4.45544,4.99954,8.94429c.13168.24049-.00921.63026-.02345.95066-.33873-.12942-.85756-.16208-.98739-.40374-.94488-1.75853-1.75481-3.59073-2.7267-5.33308a25.53475,25.53475,0,0,0-1.84292-2.41425,6.90446,6.90446,0,0,1-.98883-1.65631C43.17887,64.53114,43.47669,64.09792,43.71559,63.3402Z"/><path d="M65.88483,38.54268c-.6647-2.58644-1.57058-5.154-.46489-7.859l1.04834,7.80993Z"/><path d="M76.03307,59.00416a6.668,6.668,0,0,1-2.03819-.94076,42.33291,42.33291,0,0,1-2.83195-3.37746A13.88416,13.88416,0,0,1,73.0603,55.9573C74.09916,56.92124,75.04726,57.983,76.03307,59.00416Z"/><text x="0" y="115" fill="#000000" font-size="5px" font-weight="bold" font-family="'Helvetica Neue', Helvetica, Arial-Unicode, Arial, Sans-serif">Created by Tatyana</text><text x="0" y="120" fill="#000000" font-size="5px" font-weight="bold" font-family="'Helvetica Neue', Helvetica, Arial-Unicode, Arial, Sans-serif">from the Noun Project</text></svg>