<svg xmlns="http://www.w3.org/2000/svg" xmlns:xlink="http://www.w3.org/1999/xlink" version="1.1" x="0px" y="0px" viewBox="0 0 100 115" style="enable-background:new 0 0 100 100;" xml:space="preserve"><path d="M33.3,76.3c-2.7-0.2-5.3-0.4-8.1-0.2c0.4,0.4,0.8,0.6,1.2,0.6c3.1-0.1,6.2,0.2,9.4,0.3c-0.5-0.4-1-0.5-1.5-0.5  c1.3,0,2.6,0.4,3.9,0.7c1.5,0.4,3.1,0.6,4.7,1c1,0.2,1.7,0.5,2,1.6c0.2,0.8,1.1,1.1,1.7,1.6c1.5,1.3,3,2.5,3.7,4.4  c0.2,0.4,0.1,0.9,0.3,1.3c0.4-0.1,0.3-0.3,0.3-0.6c0.1-2.9-0.3-5.8-0.3-8.7c0.1-3.5,0.9-6.8,1.9-10.1c0.3-1.2,0.8-2.3,1.4-3.4  c0.2-0.2,0.4-0.5-0.2-0.8c-0.8-0.4-1.3-1.2-2.1-1.7c-0.7-0.5-1-1-1.4-1.7c-1.4-2.8-3.7-5.1-5.2-8c-1-1.9-1.7-3.8-2.5-5.8  c-1-2.7-1.3-5.5-1.5-8.3c0-0.4-0.2-0.8,0.1-1.1c0.3-0.3,0.7,0.1,1,0.3c3.2,1.8,5.9,4,8.1,6.9c1.5,1.9,2.7,3.9,3.8,6  c0.9,1.8,0.9,3.6,0.7,5.5C54.6,57.5,54,59,54,60.6c0,0.2-0.1,0.4,0,0.6c0.2,0.3,0.3,0.9,0.7,0.9c0.3,0,0.5-0.4,0.7-0.7  c1.5-2.6,2.4-5.5,3.8-8.1c1-2.1,1.7-4.3,2.3-6.5c0.5-1.7,0.8-3.4,1-5.2c0.1-1.9-0.7-3.6-1.3-5.4c-0.3-1-0.7-2.2-1.5-2.9  c-0.8-0.7-1.4-1.5-2.1-2.2c-2.3-2.4-4-5.1-4.7-8.3c-0.4-2.2-0.2-4.4-0.1-6.7c0.1-3,1-5.9,1-8.9c0-0.3-0.2-0.7,0.2-0.8  c0.4-0.1,0.7,0.2,0.9,0.6c1.1,1.8,1.9,3.7,2.8,5.5c1.3,2.5,2.6,4.9,3.3,7.7c0.6,2.2,1.7,4.3,1.5,6.7c-0.2,2.1-1,3.9-1.7,5.8  c-0.1,0.3-0.3,0.5-0.1,0.7c0.9,1.2,1.1,2.8,2,4.2c0.2-0.6,0.5-1.2,0.5-1.7c0.3-2.6,1.8-4.5,3.3-6.5c2-2.6,4.8-4.2,7.6-5.7  c0.4-0.2,0.7-0.5,1-0.8c0.3-0.3,0.7-0.3,1-0.1c0.4,0.2,0,0.5-0.1,0.8c-1.2,2.8-2.2,5.8-3,8.7c-0.7,2.5-1.9,4.7-3.6,6.7  c-1.2,1.5-2.5,2.7-4.2,3.6c-1.2,0.6-2.2,2-2.6,3.5c-0.8,2.7-1.6,5.3-2.7,7.9c0,0.1,0,0.2-0.3,0.1c1.1-1,2.2-1.9,3.3-2.9  c0.5-0.4,0.7-1.1,1.7-0.7c0.5,0.2,1.3-0.3,2-0.6c1.9-0.6,3.9-0.7,5.8-0.9c2.4-0.3,4.8-0.7,7.3-1.1c0.3,0,0.6-0.2,0.9-0.1  c0.5,0.1,0.7,0.4,0.4,0.9c-1.6,2-3.3,4-5.2,5.9c-2,1.9-4.1,3.4-6.5,4.5c-2.6,1.2-5.3,1.9-8.2,2c-0.8,0-1.5-0.5-2.3-0.7  c-0.8-0.3-1.4-0.1-1.9,0.8c-1.3,2.4-2.7,4.8-3.6,7.4c-0.6,1.7-0.6,3.6-0.8,5.4c-0.2,2.3-0.6,4.7-0.5,7c0.1,1.5-0.2,3.1,0.3,4.7  c0.9-0.8,1.7-1.7,2.4-2.5c1.5-1.7,3.2-3.2,5.3-4.1c1.7-0.7,3.5-1.2,5.4-1.3c5.7-0.3,11.3,0,17-0.2c3.5-0.1,7,0.3,10.5,0.4  c0.3,0,0.7,0,0.7,0.4c0,0.3-0.5,0.2-0.7,0.2c-1.8,0-3.5,0-5.3,0c-0.3,0-0.6-0.1-0.7,0.3c1.1,0.2,2.2,0.5,3.3,0.7c0,0.1,0,0.2,0,0.3  c-2.7-0.8-5.4-0.9-7.6,1.3c0-0.1-0.1-0.2-0.1-0.3c0.8-0.6,1.6-1.1,2.4-1.7c-1.5-0.2-3-0.5-4.3,0.6c0,0.4,0.4,0.1,0.5,0.4  c-0.3,0-0.7,0.2-0.9-0.2c-0.2-0.4,0-0.7,0.4-0.8c0.2-0.1,0.5-0.2,0.4-0.5c-0.1-0.2-0.4-0.3-0.6-0.3c-0.6-0.1-1.2,0.3-1.7,0.6  c-1.2,0.6-2.2,1.4-3.1,2.4c0.3-1.3,1.4-1.8,2.5-2.6c-2-0.5-3.6-0.1-5,1.4c0.1,0.3,0.7-0.1,0.7,0.4c-1,0.2-2.5-0.5-2.4,1.5  c-0.6-0.4-0.6-0.4,0-1.6c-1,0.1-2-0.2-3,0c-0.3,0.1-0.8-0.1-0.7,0.5c0,0.2-0.2,0.1-0.3,0.1c-0.4-0.5-1-0.4-1.6-0.7  c0.4-0.1,0.8-0.3,1.1-0.4c-0.7-0.5-0.7-0.5-2,0.7c0-0.6,0-0.6,0.3-1.1c-3.2,0.4-5.7,2.1-8.2,3.9c-1.2,0.9-2.4,1.8-3.5,2.8  c-0.5,0.4-0.5,1-0.6,1.6c-0.1,0.5-0.3,0.8-0.6,1.2c-0.9,1-1.2,2.3-1,3.7c0.1,0.5,0.7,1.2,0,1.4c-0.8,0.3-0.6-0.6-0.8-1  c-1.2-1.6-1-3.5-1.1-5.4c0-0.8,0-1.5-0.9-1.9c-0.3-0.1-0.4-0.4-0.5-0.6c-0.2-2.1-1.9-2.8-3.4-3.7c-0.9-0.5-1.9-0.9-2.6-1.7  c-0.5-0.5-3.3-0.4-4.1,0.1c1.4,0.2,2.7,0.5,4,0.7c-0.8,0.7-1.4,0.2-2.1,0.1c-1.8-0.3-3.6-0.5-5.4-0.9c-1-0.2-1.9-0.2-2.8,0.1  c0.4,0.1,0.7,0.3,1.1,0.4c-2.8,0.2-5.5-0.5-8.3-0.5c-2.7-0.1-5.4-0.5-8.1-0.4c0.6,0.6,1.3,0.6,1.9,0.6c2.3,0.3,4.7,0.6,7,1.1  c0.3,0.1,0.7-0.1,0.7,0.4c0,0.4-0.5,0.3-0.8,0.3c-1.6,0.2-3.1,0.3-4.7,0.4c-0.4,0-0.7,0.1-1.1-0.1c1.8-0.2,3.6-0.4,5.5-0.6  c-1.4-0.5-2.7-0.6-4-0.7c-2.7-0.4-5.4-0.9-8.1-1.1c-0.3,0-0.8,0-1-0.6c-0.2-0.5-0.8-0.3-1.2-0.1c-1.2,0.3-2.4,0.7-3.6,1  c0.4-0.6,1-0.6,1.6-0.7c-0.2-0.4-0.9-0.2-0.8-0.7C8,78,8.4,78.1,8.8,77.9c2.7-0.9,5.4-1.2,8.2-1.7c1.3-0.2,2.7,0.1,4-0.2  c2.3-0.6,4.7-0.3,7-0.3c1.8,0,3.5,0.2,5.3,0.4C33.3,76.2,33.3,76.3,33.3,76.3z M59.2,59.3c2.7-1.1,5.4-2.2,8.1-3.2  c-0.7,1-1.8,1.4-2.5,2.4c2-0.5,3.8-1.5,5.7-1.9c1.4-0.3,2.6-1.2,3.6-2.2c1.6-1.5,3.3-3,4.7-4.9c-0.4-0.3-0.7-0.2-1,0  c-0.7,0.2-1.4,0.4-2.1,0.6c-0.1,0-0.3,0.1-0.3-0.1c-0.2-0.2,0.3-0.2,0.2-0.4c-0.3-0.2-0.5,0.1-0.7,0.1c-3.1,0.2-6.2,0.8-9,2.3  c-0.2,0.1-0.4,0.2-0.4,0c-0.2-0.8-0.5-0.2-0.8-0.1c-0.6,0.1-0.9,0.6-1.3,0.9c-1.3,1.1-2.6,2.3-3.5,3.9c-0.1,0.3-0.3,0.6-0.2,0.9  c0.2,0.4,0.5,0.1,0.7,0c0.2-0.1,0.5,0,0.6,0.2c0.2,0.4-0.1,0.5-0.4,0.6C60.1,58.7,59.5,58.6,59.2,59.3z M51.4,57.9  c0.4,0.2,0.1,0.8,0.7,1c0.2-0.3-0.1-0.6-0.1-0.8c0.1-1.3,0.5,0.2,0.7-0.1c0.1-0.7,1-1.4,0.1-2.1c0,0,0-0.2,0-0.3  c0.4-1.9-0.3-3.6-1-5.3c-0.7-1.6-2-2.9-3-4.3c-1.6-2.3-3.7-3.9-5.7-5.9c-0.2-0.2-0.3-0.3-0.6-0.3c-0.1,1.2,0.3,2.3-0.1,3.7  c0.7-0.4,1-0.4,0.9,0.3c-0.1,0.9,0.2,1.7,0.2,2.5c0,0.7,0.4,1.4,0.9,2.1c0.2-1-0.5-1.9,0.2-3c0.1,1.3,0.2,2.4,0.3,3.5  c0,0.5,0.1,1,0.4,1.4c0.9,1.3,1.6,2.6,2.4,4c0.5,0.8,0.7,1.7,1.4,2.4c0.2-0.3-0.1-0.7,0.3-0.9c0.5,0.9,0.7,2,1.5,2.8  C51.2,58.3,51.3,58.1,51.4,57.9z M59.7,28.3c0-0.5,0.1-1-0.1-1.5c-0.2-0.7-0.2-1.5-0.3-2.2c0-0.1-0.1-0.4,0.2-0.3  c0.1,0,0,0.5,0.3,0.2c0.2-0.2,0-0.4-0.1-0.5c-0.4-0.8-0.8-1.7-1.2-2.5c0.9,0.5,0.9,1.6,1.6,2.3c0-0.8-0.3-1.3-0.5-1.9  c-0.3-1-1.1-1.8-1.1-2.9c0-0.8-0.2-1.4-0.6-2.1c-0.4-0.8-0.8-1.6-1.2-2.3c-0.7-1.2-1.3-2.4-2.3-3.6c-0.1,1.6-0.1,2.9-0.3,4.3  c-0.4,2.2,0.1,4.4,0.4,6.5c0.3,2.1,0.9,4.2,1.8,6.1c0.7,1.5,1.6,3.1,3.4,3.9c-0.1-0.7,0.3-1.4-0.3-2.1c0,0.2-0.1,0.4-0.1,0.5  c0,0.3,0.1,0.7-0.3,0.7c-0.3,0-0.2-0.4-0.3-0.7c-0.1-1.6,0.3-3.2,0.3-4.9C59.1,26.3,59.4,27.3,59.7,28.3z M73.6,25.8  c-1,1-2.4,1.4-3.4,2.2c-2.5,2-4.9,4.1-5.7,7.4c-0.4,1.5-0.8,3-0.7,4.5c0.1,1.1,0.3,1.2,1.3,0.6c0.2-0.1,0.4-0.4,0.7-0.4  c1.2-0.3,1.8-1.3,2.7-2c0.1-0.1,0.2-0.3,0.2-0.3c-0.6-0.7,0.2-1.1,0.3-1.6c0.1-0.4,0.6-0.6,0.4-1.1c-0.6,0.3-0.9,1-1.5,1.2  c-0.2-0.2-0.2-0.3,0-0.4c1.6-1,2.2-2.7,3.3-4.1c0.1-0.2,0.4-0.3,0.2-0.6c-0.6,0.2-0.7,1-1.3,1.2C71.4,30.4,72.9,28.3,73.6,25.8z   M12.9,77.5c4-0.3,7.9-1.1,11.9-1C20.8,76.5,16.8,76.2,12.9,77.5z M73.7,78.8c-1.6,0.8-3.6-0.7-5.1,1.1C70.5,80,72.3,80.6,73.7,78.8  z M60.9,80.3c-2,0-3.1,1.3-4.2,2.7c0.9-0.4,1.7-0.8,2.5-1.3C59.9,81.3,60.4,80.9,60.9,80.3z M20.1,77.8c-1.8,0-3.6,0.2-5.5,0.6  C16.6,79.3,18.3,78.4,20.1,77.8z M33.8,77.7c1.8,0.8,3.8,0.9,5.7,1c0-0.1,0-0.3,0-0.4C37.6,78.1,35.7,77.9,33.8,77.7z M26.7,79.3  c1.4,0.3,2.7,0.7,4.1,0.3C29.5,79.2,28.1,78.8,26.7,79.3z M34.1,79.2c1.2,0.1,2.4,0.8,3.9,0C36.5,79,35.3,78.4,34.1,79.2z   M25.4,78.3c0,0.1,0,0.2,0,0.3c0.8,0,1.5,0,2.3,0c0.3,0,0.5-0.2,0.4-0.6c-0.1-0.4-0.3-0.3-0.6-0.2C26.8,78,26.1,78.1,25.4,78.3z   M33.5,78.5c-1.1,0.1-2.1-0.8-3.3,0C31.3,78.5,32.4,79.3,33.5,78.5z M60.6,59.3c2.6,0.3,3.1,0.2,3.2-1C62.9,59,61.7,58.7,60.6,59.3z   M69.4,36.1c1.3-0.6,1.8-1.6,2.1-2.8C70.4,34,70.1,35,69.4,36.1z M21.7,77.9c0,0.1,0,0.2,0,0.3c1-0.1,2.1,0.3,3.1-0.3  C23.8,77.9,22.8,77.9,21.7,77.9z M23.3,78.9c1,0.3,1.9,0.6,2.8-0.1C25.2,78.8,24.3,78.3,23.3,78.9z M13.6,79.2  c0.8,0.2,1.6,0.6,2.8,0.3C15.4,78.8,14.5,79,13.6,79.2z M18.6,78.9c0.7-0.1,1.5,0.6,2.3,0C20.1,78.8,19.3,78.2,18.6,78.9z"/></svg>