<svg xmlns="http://www.w3.org/2000/svg" data-name="Слой 1" viewBox="0 0 100 115" x="0px" y="0px"><title>apple</title><path d="M83.61859,58.73114c-1.7373-7.96747-7.31482-13.80048-13.86957-18.30933-2.00659-1.38025-5.17041-1.22461-7.832-1.463-2.436-.21832-4.908-0.03644-7.36487-0.02191a4.99835,4.99835,0,0,1,1.162-1.69873c3.8418-2.36273,7.76245-4.59686,11.62549-6.926,5.50421-3.31848,10.96313-15.116,9.4-21.20032C76.2265,7.11426,74.27887,4.007,72.97107,3.99878a15.97357,15.97357,0,0,0-8.1535,2.78864,93.31143,93.31143,0,0,0-11.09949,8.62329,20.84445,20.84445,0,0,0-3.80621,5.29535c-1.22815,2.10919-2.18414,4.37689-3.29626,6.65283-3.07928-3.67444-1.39819-10.361-9.02374-9.95935,1.58258,4.18707,3.24036,8.13739,4.56427,12.19653,1.3656,4.18683,2.40631,8.47961,3.74951,13.30176-1.144.23682-2.88037,1.20209-3.94879,0.71173-4.31219-1.97906-8.63733-.347-12.928-0.53754q-0.61276.25113-1.23633,0.46045a18.56683,18.56683,0,0,0-5.19159,3.99078,29.58406,29.58406,0,0,0-2.15869,2.86066c-1.23627,2.30164-2.54022,4.57019-3.74933,6.88654a7.24759,7.24759,0,0,0-.88226,2.78522,48.5198,48.5198,0,0,0,2.02289,18.7876c4.30988,12.822,14.795,20.12152,28.53809,16.00983,0.71613-.21429,1.80444-0.74457,1.88666-1.26044,0.48-3.01239,1.88745-1.96674,3.5141-1.05786,3.28687,1.83649,6.69434,2.69305,10.53253,1.6438A27.44028,27.44028,0,0,0,77.3681,84.3869C83.28339,76.7373,85.65045,68.04938,83.61859,58.73114ZM72.0351,10.122c0.54254,5.51373-2.34283,8.60864-7.79889,8.29541C67.041,15.43408,69.3739,12.95264,72.0351,10.122ZM66.01727,23.01465q0.59894-.22394,1.19775-0.44794-3.23337,1.37311-6.4668,2.74646l-0.467-.51068q1.92572-2.85672,3.85138-5.71344-0.46875.76813-.9375,1.53625Q64.60617,21.82007,66.01727,23.01465Zm-5.29877-8.85632q0.60526,0.24948,1.21045.499Q60.113,18.91513,58.297,23.173q-0.50253-.20865-1.00507-0.41742C59.00616,20.11383,56.78314,15.92993,60.71851,14.15833Zm0.84033,13.67737q0.25314,0.52231.50629,1.04462-4.44122,3.61185-8.88251,7.22375-0.54932-.54016-1.09869-1.08032c1.391-1.73132,3.45752-3.26532,4.03241-5.23486C57.31427,25.68506,60.36206,30.4726,61.55884,27.83569Zm-6.91815-8.03186c1.28241,6.69818-3.52179,11.004-5.5592,16.12354C46.59058,32.0202,48.38007,26.48541,54.64069,19.80383ZM54.31732,39.02026a33.60131,33.60131,0,0,1-4.3421,2.47845c-0.3186.13324-1.20056-1.08142-2.11023-1.94879C50.41833,39.34039,52.37738,39.1795,54.31732,39.02026ZM77.93738,76.54541c-0.93384,1.48926-2.20551,2.77136-3.0885,4.28479-0.24908.42676,0.33954,1.34229,0.66113,2.43011-5.01044,6.19385-14.882,9.98-18.68335,7.14624C52.95,93.69031,51.40887,88.34692,48.41638,88.379c-2.78595,5.17084-7.86133,4.99182-12.79626,4.81525-1.69269-.06049-4.16614-0.04352-2.67114-3.40247,0.60968-1.36975-.25848-3.39722-0.51984-5.7041-1.44348-1.00165-2.46991,4.88989-4.60358,1.32953-0.62842-1.04865.08844-2.9035,0.25232-5.33105-0.31268-.181-1.47693-0.8548-3.09833-1.79333,0.74268-2.08,1.63837-4.58832,2.72534-7.63257-2.58466-1.39948-2.52368,2.69452-4.91077,2.72284a46.20932,46.20932,0,0,1,1.21332-5.69257,16.46949,16.46949,0,0,0,.35364-10.17468c-0.18329-.64655.90234-1.58478,1.20758-2.45648a21.92565,21.92565,0,0,0,.621-2.92737q-0.64279-.562-1.28558-1.12384c3.683-1.83551,7.19781-4.47107,11.09436-5.28943,4.19861-.88184,8.20276,1.54913,12.58362,3.63055,3.5271-1.28644,5.58191-8.061,12.22455-4.7605-0.60718-1.12183-.99316-1.83508-1.47565-2.7265,1.45691-.49292,2.88257-0.97522,4.30817-1.45752q0.12991,0.20334.2597,0.40674c-0.779.64-1.558,1.28009-2.49457,2.04956,2.47009,0.366,5.22021.07245,7.01862,1.242,1.71887,1.118,2.44751,3.75848,3.85883,6.1488-1.8736.20837-2.84344,0.31628-4.05853,0.45142,3.70471,1.56409,3.70471,1.56409,5.61639,6.14349,0.16418-1.07874.32831-2.15741,0.51227-3.36646,2.73108,1.37286,3.48615,3.229,2.35291,6.167-0.80243,2.08-2.99677,4.24323-.46429,6.74127,0.3241,0.31964-.33478,1.63568-0.53546,2.47821,0.64471,0.30548,1.23138.58344,2.064,0.978-0.72626,1.14941-1.36945,2.1676-2.00677,3.17627,1.7395,0.88153,1.7395.88153,5.37665-3.7146q0.3707,0.19345.74139,0.387C80.574,71.98242,79.3363,74.31451,77.93738,76.54541Z"/></svg>