<svg xmlns="http://www.w3.org/2000/svg" data-name="Слой 1" viewBox="0 0 100 115" x="0px" y="0px"><title>plant-01-01-01-01-01-01</title><g><path d="M84.25923,7.64617a2.29806,2.29806,0,0,1,.17131.92747c-1.87476,4.89-2.26847,10.08357-2.314,15.17679a101.88346,101.88346,0,0,1-.40231,12.02987C80.42871,45.84339,76.1141,53.9876,66.569,58.52191a16.42679,16.42679,0,0,1-5.4151,1.19343c-3.34651.321-3.31658,0.23606-4.36808,3.51143-2.57473,8.02018-3.09691,16.34459-3.69456,24.65661-0.05943.82652,0.23076,1.67324,0.23508,2.51122a9.23406,9.23406,0,0,1-.58014,1.97378,7.664,7.664,0,0,1-.86557-1.91169c-0.09092-1.7754.06015-3.571-.13277-5.33124-0.20032-1.82771-.24873-3.89171-1.146-5.381a47.29361,47.29361,0,0,0-8.905-11.04423,14.45876,14.45876,0,0,0-1.33605,1.32057c-1.82028,2.33255-4.53442,2.87079-7.1549,3.49277-1.96778.46706-3.68412-.46451-5.20846-1.61384a11.31078,11.31078,0,0,1-2.42888-2.32647,30.251,30.251,0,0,0-10.02079-9.30406,6.88162,6.88162,0,0,1,1.82954-1.01842c3.32908-.45039,6.1843-2.09714,9.17093-3.4398a30.15639,30.15639,0,0,1,5.01115-1.77582,6.8484,6.8484,0,0,1,7.09608,2.332c1.92066,2.13817,3.26182,4.51517,3.14095,7.55776a6.29632,6.29632,0,0,0,1.823,4.53675c2.46742,2.79994,4.67321,5.83026,6.99158,8.76186,0.39043,0.49371.80486,0.96845,1.55788,1.87116,0.61842-3.80234,1.01946-7.17756,1.74587-10.48122,0.74077-3.369,1.80136-6.6677,2.77871-10.20254-2.7712-1.92355-4.385-4.86467-5.99473-7.81142a10.45926,10.45926,0,0,1-1.06579-6.22451c0.61161-6.85883,4.30077-11.95093,9.31869-16.07672,5.05481-4.15613,10.431-7.93707,15.80709-11.68035a27.72484,27.72484,0,0,0,7.00785-7.18865C82.32352,8.62221,82.639,7.49023,84.25923,7.64617Zm-24.07732,46.242c1.16508,0.89476,2.37825,1.735,3.47742,2.70449,0.67168,0.59243,1.2003,1.22968,2.17274.36723-0.19826-1.38253-2.05092-1.95919-2.04659-3.92894l3.75772,3.3884L70.412,54.01051c-0.7203-1.73693-2.62541-2.37883-2.86859-4.64775l4.127,3.93751a24.09,24.09,0,0,0,5.2865-6.72725c3.37538-6.66841,3.75614-13.79515,3.69-21.0348-0.017-1.86178-.008-3.72857.10872-5.58553,0.13731-2.18415.40492-4.36012,0.65305-6.92189a57.52626,57.52626,0,0,1-4.69121,4.26755c-4.24383,3.064-8.61424,5.952-12.89543,8.96524-4.71858,3.32109-8.96955,7.15046-11.27295,12.573-1.62378,3.82263-2.67434,7.834-.33442,11.84562,0.70481,1.20835,1.39057,2.43172,2.1679,3.59274a4.87405,4.87405,0,0,0,3.31041,2.387l-0.91334-2.76368,1.6422,0.29111A144.90514,144.90514,0,0,1,69.96845,30.07056c0.40563-.67884.59945-1.6992,1.78829-1.14875a1.14316,1.14316,0,0,1,.17254.529,6.66543,6.66543,0,0,1-.56833,1.2613A144.93575,144.93575,0,0,0,61.34967,50.47612c-0.45322,1.11325-.74544,2.292-1.11145,3.44117-1.1164,1.19547-.90212,2.35969.12825,3.45825a1.56225,1.56225,0,0,0,2.4165.1861C61.86534,56.26566,61.02362,55.07691,60.18191,53.88816Zm-28.137,14.583c1.4999,0.0147,1.48817.0263,2.68632,1.14864,1.64318,1.53922,2.76464,1.51142,4.24888-.14425a12.26268,12.26268,0,0,0,1.14078-1.83917c-2.911-2.00067-6.526-1.48989-9.04977-3.96733l9.21364,1.73166a10.01627,10.01627,0,0,0-3.02968-8.21828c-2.48555-2.39127-5.323-1.96084-8.12344-.77213-3.15889,1.34088-6.24869,2.8445-9.38888,4.28668,2.85086,3.1607,5.6144,6.29448,8.472,9.34a12.544,12.544,0,0,0,2.46534,1.62974l0.17973-.368L27.71091,68.069c2.77591,0.3651,3.94072,3.39816,7.35223,3.79779Z"/><path d="M71.73463,49.54333c-1.96246-1.03443-2.92058-2.67335-3.96729-4.23171C70.26567,46.64826,71.10569,47.57207,71.73463,49.54333Z"/><path d="M69.76009,42.80793a8.61706,8.61706,0,0,1,4.29163,4.46145A9.99782,9.99782,0,0,1,69.76009,42.80793Z"/><path d="M73.79024,33.612l3.52943,3.33878C75.236,36.65024,74.53014,35.97323,73.79024,33.612Z"/><path d="M75.806,30.03882a1.99916,1.99916,0,0,1,1.49734,2.57009l-1.97148-2.14863Z"/><path d="M77.26921,25.785l2.10938,2.41243-0.54647.50378-2.31819-2.22847Z"/><path d="M75.52633,42.55925L73.52813,40.911l0.45009-.57519L76.03477,41.909Z"/><path d="M79.32889,25.837l-2.387-1.74682C78.50171,23.72993,78.89027,24.29,79.32889,25.837Z"/><path d="M36.16288,67.45892l1.91257,2.32443c-1.76561-.62088-1.76561-0.62088-2.369-1.90881Z"/></g></svg>