<svg xmlns="http://www.w3.org/2000/svg" data-name="Слой 1" viewBox="0 0 100 115" x="0px" y="0px"><title>ttt_Монтажная область 1</title><path d="M56.41473,4.24432c-.53442,3.88733-1.14082,7.75094-1.56061,11.63473a15.402,15.402,0,0,0,.23451,4.41854c.53916,2.88607,1.28589,5.73274,1.91165,8.60339.51877,2.37992.88334,4.79809,1.50071,7.15089a55.35378,55.35378,0,0,1,1.51275,11.94357c.15009,3.77167.39091,7.54051.48591,11.31326a44.558,44.558,0,0,1-.307,4.75c-.1613,1.95823-.28775,3.92289-.55176,5.86816-.27156,2.001-.7001,3.98028-1.04245,5.97207a49.47075,49.47075,0,0,0-.99377,6.2897,18.75089,18.75089,0,0,0,1.00949,7.63056c.74655,1.92041,1.49506,3.84062,2.28576,5.743a.77941.77941,0,0,1-.46825,1.14623c-.50618.24051-.75547-.05795-.91355-.51342-1.04624-3.01446-2.08878-6.03032-3.16436-9.03433a1.95571,1.95571,0,0,0-.68614-.93165A52.78426,52.78426,0,0,1,46.15671,77.927,23.23334,23.23334,0,0,1,39.989,65.9094a40.266,40.266,0,0,1-.82175-5.30775,106.56,106.56,0,0,1,.00678-11.86982,57.17413,57.17413,0,0,1,1.8565-10.27113,105.25467,105.25467,0,0,1,3.49862-9.93642q1.9011-5.01242,3.99025-9.953c1.58912-3.76028,3.28685-7.47453,4.9116-11.22.48542-1.119.908-2.26722,1.31157-3.4188.16964-.48409.41717-.875.92616-.67115C55.95555,3.37627,56.10989,3.82185,56.41473,4.24432ZM50.67379,20.437c-.31018.68244-.573,1.15564-.74646,1.65963-.97762,2.84158-1.97673,5.67691-2.88563,8.54068-.99431,3.13291-2.01174,6.26612-2.80886,9.45179-.74025,2.95833-1.27851,5.97407-1.75718,8.98811a31.753,31.753,0,0,0-.20378,4.64631c-.0097.97843.15916,1.95881.14642,2.937a35.838,35.838,0,0,0,2.37922,13.34952A28.36893,28.36893,0,0,0,52.50507,81.617c.97725.85739,2.01406,1.64688,3.20346,2.61382-.32985-2.13779-.57024-3.954-.89719-5.75457-.4964-2.73372-1.11355-5.44645-1.5687-8.18648-.58533-3.52374-1.12694-7.05753-1.566-10.602-.45518-3.67458-.90466-7.35968-1.10193-11.0538-.22257-4.16835-.1712-8.35176-.21447-12.52888-.00819-.78881.15014-1.57934.14264-2.36822-.02621-2.7542-.136-5.50822-.12481-8.26193C50.38458,23.86605,50.56075,22.25788,50.67379,20.437Zm2.937,35.78033a6.25173,6.25173,0,0,1,.13522-.79871c.8803-2.91846,1.87873-5.8067,2.62266-8.75918a60.30075,60.30075,0,0,0,1.20814-7.004,9.7307,9.7307,0,0,0-.31995-2.48987C55.213,43.416,53.66981,49.67578,53.61079,56.21737Zm-.61044-4.79844a22.91137,22.91137,0,0,1,.30935-2.30165c.75833-3.22913,1.43726-6.4849,2.39127-9.65693.52587-1.74843.34443-3.55742.86933-5.30047.22233-.73828-.32349-1.70789-.55473-2.72416a3.42018,3.42018,0,0,0-.20915.53733c-.16439.99571-.26781,2.00414-.48337,2.98823-.56019,2.5574-1.22754,5.09245-1.741,7.65867A25.46669,25.46669,0,0,0,53.00035,51.41893Zm6.278,7.21393-.40683-.03963c-1.7238,6.56779-3.82706,13.09367-2.09519,20.038.074-1.57221-.11652-3.176.11215-4.71753.537-3.62,1.30673-7.20481,1.91487-10.81521C59.05149,61.62505,59.12523,60.12228,59.27832,58.63286ZM55.52058,69.44127c.2843-1.41588.52511-2.84221.8622-4.2454.64207-2.6726,1.3339-5.33333,2.0215-7.99474a4.55194,4.55194,0,0,1,.3768-.74561,2.02788,2.02788,0,0,0,.32923-.79671c-.03441-.99435-.14318-1.98613-.22417-2.97887C57.0845,58.148,54.99185,63.53326,55.52058,69.44127ZM52.448,42.89494l.27767.01638c.03486-.30647.05955-.61449.1065-.91909.13418-.87033.237-1.74809.425-2.607.46426-2.1203.99946-4.22533,1.44572-6.34918a18.10773,18.10773,0,0,1,.58514-3.43806c.49139-1.13183-.1378-1.89005-.3467-2.819C54.00712,32.14928,52.096,37.35659,52.448,42.89494Zm2.18653,19.68679.32638.072c.10185-.32748.208-.65369.30482-.98264.56351-1.91443,1.01588-3.87044,1.71567-5.73357A26.61743,26.61743,0,0,0,58.571,49.41765a17.42007,17.42007,0,0,0,.01015-1.86868l-.24885-.00063C56.794,52.48734,55.0776,57.38433,54.63457,62.58173ZM54.19246,24.2463c-2.20763,4.43226-2.66337,9.18318-2.61157,14.02643C52.57573,33.61987,53.64085,28.97977,54.19246,24.2463ZM53.50476,18.53c-.9445,2.46579-1.31623,5.6467-.80707,6.60544A8.98521,8.98521,0,0,0,53.50476,18.53Zm4.53817,24.48625q-1.145,4.68994-2.29,9.37989C56.96769,49.37228,58.13121,46.33683,58.04293,43.01626ZM41.53916,50.05094c.48085-1.425.34691-1.82469-.76315-2.49693A1.97927,1.97927,0,0,0,41.53916,50.05094Zm.13745,9.35717c.37669-1.3157-.55483-1.41341-1.35328-1.7037C40.33149,58.83017,40.693,59.2719,41.67661,59.40811Zm.546,4.27181c.20381-1.33751-.82019-1.61982-1.58935-2.16808C40.33443,62.877,41.5563,63.01784,42.22257,63.67992ZM40.92325,46.20273l1.13543.836.17478-1.41556-.93373-.696Zm.08064,17.89433c.249.852.644,1.558,1.62085,1.7025C43.03726,64.27625,41.549,64.64281,41.00389,64.09706Zm14.28276-9.68479-.27392-.06217q-.50811,2.21963-1.01619,4.43924l.27233.06082ZM40.18476,55.45636c-.25619,1.20755.98682,1.0733,1.39805,1.78092C41.78545,56.14312,41.78545,56.14312,40.18476,55.45636Zm.2602-4.80467c-.22692,1.16838-.1086,1.29664,1.12049,1.25512C41.65582,51.06242,41.06814,50.86248,40.445,50.65169ZM57.79305,72.25486l.34006.03737q.25542-1.94313.51083-3.88628l-.19142-.02792Q58.12278,70.31644,57.79305,72.25486Zm-14.00058-36.47c-.0892.69452-.8449,1.28251.30642,1.84727C44.02187,36.96507,44.80981,36.41179,43.79247,35.78485ZM52.52386,53.018l-.36212.05012.30594,2.67238.23028-.02519ZM43.41038,68.6732l-.32037.0785c.07765.53563,1.12152,1.045.08144,1.61236l.84436.48808.17307-.118Zm-.71017-26.50579.31415-.03683.18183-1.38946-.82151.20389Zm-.63255.67094-.36864.08624.496,1.43446C43.09463,43.5088,42.231,43.26226,42.06766,42.83835Zm.88327,24.88128.2398-.39842-1.3922-.70783-.16761.27382Z"/></svg>