<svg xmlns="http://www.w3.org/2000/svg" data-name="Слой 1" viewBox="0 0 100 115" x="0px" y="0px"><title>дерево 8</title><g><path d="M36.43632,21.64347c-0.25362-1.23036-.53617-2.4585-0.73739-3.69286a1.79893,1.79893,0,0,1,.33379-0.8123,2.49561,2.49561,0,0,1,.64079.76992c0.27486,1.17694.45741,2.3673,0.6855,3.55151,0.23783,1.23477.4892,2.4681,0.76653,3.86232,0.75323-2.16614,1.46138-4.20266,2.16954-6.23917L40.607,19.09134a2.53784,2.53784,0,0,1,.21587.932c-0.20751,1.05812-.5559,2.07879-0.73744,3.14227-0.35581,2.08443-.51,4.22736-0.98863,6.27065-0.33527,1.43134.24023,2.72229,0.47292,4.06823,0.16659,0.96359.53621,1.90827,0.73172,2.87115a7.61549,7.61549,0,0,0,1.72984,3.20368c1.77547,2.23006,3.49054,4.50575,5.23016,6.76288,0.1495,0.194.29889,0.388,0.61589,0.79948,0.04241-1.53681.12617-2.83227,0.104-4.13517-0.04418-2.59284-.0959-5.18826-0.24715-7.7856-0.072-1.23594-.3842-2.47842-0.57909-3.71852-0.54812-3.48783-2.03906-6.77321-3.028-10.16629-0.03082-.10573-0.099-0.205-0.12222-0.31087a3.98234,3.98234,0,0,0-1.38074-2.36007c-1.45426-1.24257-2.701-2.73072-4.06049-4.09036-0.83681-.83687-1.7364-1.61144-2.57457-2.447a2.75991,2.75991,0,0,1-.39125-0.799,2.77511,2.77511,0,0,1,1.01438.26568c1.60632,1.24145,3.17694,2.531,4.76078,3.80289a2.63131,2.63131,0,0,0,.27551.16185c-0.93674-2.88878-2.64916-5.45284-3.67374-8.24477l0.41753-.18264c0.93518,1.60222,1.8746,3.2023,2.80437,4.8073,0.93838,1.61988,1.86719,3.24466,2.794,4.85645L43.31392,6.3061A1.05044,1.05044,0,0,1,44.276,7.432a28.21018,28.21018,0,0,0,.52449,3.48918C45.158,9.7534,45.52158,8.5879,45.87,7.41672c0.1484-.4989.23924-1.02046,0.40916-1.50954a1.57708,1.57708,0,0,1,.42307-0.45739,1.30087,1.30087,0,0,1,.2699.53163c-0.12387.97273-.25614,1.94691-0.45956,2.89892A34.71746,34.71746,0,0,0,45.459,13.64823,30.06991,30.06991,0,0,0,45.82345,18.81c0.11166,1.0464.35176,2.09029,0.533,3.13543a2.11008,2.11008,0,0,0,.09561.55893c0.50778,1.04675,1.03675,2.08474,1.50807,3.02463l0.48068-9.31092a0.694,0.694,0,0,1,.79445.85323,37.81542,37.81542,0,0,0,.3802,4.37863c0.25365-.98151.49376-1.96778,0.764-2.94343,0.44215-1.5963.91474-3.18191,1.34755-4.78137a1.97641,1.97641,0,0,0,.02975-0.94669c-0.648-2.66569-1.33959-5.32457-1.97344-7.99229a1.48673,1.48673,0,0,1,.13357-1.10085c0.67565-.1413.66225,0.55319,0.796,0.93615,0.59326,1.69913,1.12562,3.41456,1.686,5.12262,0.08319,0.25358.19812,0.49935,0.328,0.82241l2.2324-4.4396,0.4101,0.15094a7.88329,7.88329,0,0,1-.18173,1.5525c-0.5533,1.712-1.15549,3.40508-1.76825,5.09272a18.09549,18.09549,0,0,0-.71894,1.96649c0.75733-.59454,1.47931-1.2381,2.27875-1.77424,2.199-1.47475,4.42679-2.90977,6.65663-4.34118a1.642,1.642,0,0,1,.65534-0.07672,1.35739,1.35739,0,0,1-.16774.67759c-1.11666.87121-2.26816,1.69982-3.40842,2.54219a0.805,0.805,0,0,0-.34289.44509l6.89759-.4001,0.13355,0.3786a5.21225,5.21225,0,0,1-.92783.38584c-2.20807.46662-4.42869,0.89105-6.63338,1.36868-0.72562.15718-1.40727,0.458-2.12706,0.639a5.3535,5.3535,0,0,1-.90136-0.01894,1.14476,1.14476,0,0,0-.62965.16132,5.14191,5.14191,0,0,0-2.20214,3.4304c-0.39753,3.49156-.94367,6.95358-1.35527,10.44258a14.06376,14.06376,0,0,0,.21587,2.32892q0.33959,5.76757.64516,11.53409c0.11788,2.29519.21573,4.59036,0.27177,6.88236,0.04553,1.86216.0098,3.71914,0.02124,5.57933,0.00561,0.91279.03649,1.8276,0.0598,2.92349,0.36754-1.21717.67893-2.27916,1.00861-3.33407,0.78392-2.50836,1.588-5.009,2.34939-7.52585a2.62844,2.62844,0,0,0-.0907-0.969,10.31922,10.31922,0,0,1-.14072-1.03987c-0.0365-1.67072.00722-3.33832-.08873-5.01037-0.15707-2.737-.41894-5.477-0.59812-8.21487-0.07564-1.15574-.057-2.3096-0.07043-3.46352A0.38411,0.38411,0,0,1,54.33,28.12765a0.40218,0.40218,0,0,1,.35961.05771,2.6425,2.6425,0,0,1,.36519.8833c0.18518,1.60187.33355,3.20483,0.48832,4.80747q0.40363,4.17948.8,8.359L56.6222,42.2984a7.32276,7.32276,0,0,0,.35954-0.75683q1.53686-4.42962,3.05667-8.86634a0.693,0.693,0,0,0,.0842-0.44834c-0.92211-1.3189-.64076-2.74377-0.62142-4.09293a8.2215,8.2215,0,0,0-.55452-3.8191c-0.2774-.58914-0.27686-1.13164.45838-1.28014,0.09566-.61909-0.81289-1.13868-0.11575-1.92627a7.06336,7.06336,0,0,1,.67489,1.55235c0.34969,2.37274.62963,4.74969,0.93421,7.12514l0.2118,0.0528c0.4164-1.26777.89655-2.514,1.234-3.80847a17.38664,17.38664,0,0,1,2.13094-5.20672,4.8599,4.8599,0,0,1,.87063-0.8122L65.68385,20.243a6.80189,6.80189,0,0,1-.2863,1.13284c-0.951,2.1514-2.07449,4.22763-2.85761,6.44878-0.9198,2.60876-1.5514,5.33965-2.308,8.01758l0.24713,0.119c0.1819-.28726.35007-0.58482,0.54782-0.86016q2.7261-3.7954,5.462-7.5835c0.79019-1.0938,1.58265-2.18619,2.39726-3.26095a1.72287,1.72287,0,0,1,.55953-0.3232,1.62584,1.62584,0,0,1,.08275.78241c-0.52232.901-1.10036,1.76767-1.67956,2.63166a19.8307,19.8307,0,0,0-1.57661,2.57421c0.82133-.43177,1.6441-0.86116,2.46362-1.296,0.80124-.4251,1.58716-0.87795,2.40838-1.26581a1.532,1.532,0,0,1,.70774.111,1.5106,1.5106,0,0,1-.3572.59862c-1.27165.70968-2.54587,1.41974-3.86129,2.05321a11.75991,11.75991,0,0,0-4.78932,4.52814,44.60432,44.60432,0,0,0-4.32986,7.4716,41.24463,41.24463,0,0,0-1.54289,4.4986c1.18512-1.08307,2.3543-2.1838,3.56106-3.24289,0.77662-.68156,1.59629-1.31741,2.426-1.93656a1.63507,1.63507,0,0,1,.69533-0.10186,1.57962,1.57962,0,0,1-.24724.66736c-0.81186.685-1.69252,1.29193-2.49382,1.988a23.35,23.35,0,0,0-5.48234,7.10671,19.5438,19.5438,0,0,0-1.11989,3.52764c-0.3457,1.21361-.62536,2.451-0.971,3.66465A25.35644,25.35644,0,0,0,52.13744,62.458a41.999,41.999,0,0,0-.078,6.34037c0.08316,1.76784.41025,3.54553,0.6293,5.31886l0.31382,0.04427,0.2919-1.68439-0.10046.00641c0.34448-.71313.709-1.41618,1.02951-2.14142,0.79089-1.78946,1.646-3.553,2.30524-5.39973a8.83681,8.83681,0,0,0,.41091-3.05966c-0.04082-2.40394-.20237-4.8169-0.34624-7.22706-0.03026-.507-0.242-1.01794-0.28416-1.52669a9.77182,9.77182,0,0,1,.04636-1.57229,0.37482,0.37482,0,0,1,.27317-0.19082,0.88122,0.88122,0,0,1,.36679.40771c0.11853,0.67315.17412,1.35161,0.27612,2.02664a3.61255,3.61255,0,0,0,.40545,1.25675c0.51111-1.84426,1.01462-3.69129,1.54359-5.52907a2.074,2.074,0,0,1,.40124-0.56371,1.6857,1.6857,0,0,1,.37959.70721c-0.26148,1.51268-.56708,3.01481-0.8902,4.511-0.51242,2.37274-1.36411,4.668-.96712,7.37773,0.47773-1.04289.88844-2.00166,1.349-2.9328q1.77027-3.57878,3.57944-7.136c1.55645-3.04526,3.18836-6.04866,4.68934-9.124,0.90232-1.84878,1.578-3.82053,2.43153-5.6977a34.538,34.538,0,0,1,1.70606-3.073,0.92068,0.92068,0,0,1,.45381-0.16736,1.69505,1.69505,0,0,1,.18756.78046c-0.38074.94833-.81356,1.87406-1.2672,2.786-0.82158,1.65153-1.671,3.28756-2.39763,5.02067q2.81492-2.27373,5.63136-4.54564a5.8085,5.8085,0,0,1,1.07-.77164,2.41027,2.41027,0,0,1,.89161-0.04329,4.16244,4.16244,0,0,1-.2178.82635,2.518,2.518,0,0,1-.49958.53223c0.8237-.0067,1.5855-0.01116,2.34689-0.0196,0.67833-.00753,1.355-0.04332,2.03486-0.0181a4.07462,4.07462,0,0,1,.8633.22549l0.02283,0.26518a2.39492,2.39492,0,0,1-.57843.22728c-1.64.19783-3.31641,0.26561-4.91537,0.59973A9.7108,9.7108,0,0,0,72.358,40.57739a18.37021,18.37021,0,0,0-4.6744,5.02211,55.38012,55.38012,0,0,0-5.99466,11.04332,0.84958,0.84958,0,0,0-.01605.68374,8.14178,8.14178,0,0,1,.75953-0.94133c2.20283-2.04464,4.43182-4.06174,6.62182-6.1197a5.49819,5.49819,0,0,0,.67269-1.138c0.63482-1.01049,1.2991-2.00141,1.91967-3.02113,0.82155-1.35,1.61248-2.72,2.41735-4.08089a0.63,0.63,0,0,1,.17322-0.25459,6.59515,6.59515,0,0,1,.65727-0.26229,1.785,1.785,0,0,1,.02378.75654c-0.38126.76889-.82212,1.505-1.24859,2.24841-0.41381.72139-.85164,1.42813-1.24837,2.15957a1.4693,1.4693,0,0,0-.12517.97311c0.96083-.6875,1.918-1.37989,2.88359-2.06105,0.87138-.6147,1.74215-1.23114,2.638-1.81145a1.431,1.431,0,0,1,.64646-0.01866,1.26637,1.26637,0,0,1-.21433.57441c-1.40255,1.02932-2.863,1.98611-4.23675,3.05-1.78482,1.38225-3.50454,2.84456-5.2547,4.26954-0.47525.387-.95921,0.76363-1.43918,1.145L67.4155,53.041q2.271-.27833,4.54208-0.55657c1.08525-.1327,2.1841-0.21574,3.24995-0.41886a3.26683,3.26683,0,0,0,1.30868-.65518c1.1338-.86731,2.21742-1.79692,3.347-2.66963a1.64422,1.64422,0,0,1,.71327-0.10453,1.372,1.372,0,0,1-.11233.67919c-0.82193.78946-1.6865,1.5351-2.53545,2.29687-0.12313.11049-.23847,0.22945-0.42385,0.40873,1.64257,0.47939,3.12934-.35451,4.652.09337L82.22674,52.412a3.05838,3.05838,0,0,1-.79951.29863c-1.74172.14473-3.49374,0.22985-5.23363,0.38432a38.89753,38.89753,0,0,0-9.24592,1.6713c-0.29754.10219-.57225,0.25777-0.86225,0.379a0.74539,0.74539,0,0,1-.434.13066c-0.82068-.59356-1.05609.18169-1.47308,0.49984-1.59256,1.21493-2.45726,3.00957-3.48429,4.66092-1.19159,1.91593-2.29087,3.89495-3.38,5.87689a9.95621,9.95621,0,0,0-.565,1.79719,4.60931,4.60931,0,0,0,.586-0.14306,12.69735,12.69735,0,0,1,2.45306-1.02884c2.36529-.454,3.01164-2.6544,4.40648-4.08559a2.38406,2.38406,0,0,0,.18834-0.99129c0.40733-1.80443.81835-3.60779,1.24456-5.40632a3.11342,3.11342,0,0,1,.40659-0.66352c0.87467,1.49158.55981,2.82052,0.45939,4.36429,0.59663-.81137,1.04823-1.46163,1.54236-2.07675a2.81076,2.81076,0,0,1,.65271-0.45653,1.75608,1.75608,0,0,1,.07568.85927q-1.29228,2.0361-2.68736,4.002c-0.64385.9117-1.34954,1.7775-2.02761,2.6638L64.23487,65.337c0.30142-.06177.61-0.10409,0.90312-0.1884,2.51406-.723,5.024-1.45723,7.5388-2.17811a6.13905,6.13905,0,0,1,1.24546-.25106,1.27993,1.27993,0,0,1,.50755.33562,1.69159,1.69159,0,0,1-.3678.44053,2.68358,2.68358,0,0,1-.61256.1612q-2.96453.86151-5.92631,1.73047a0.69707,0.69707,0,0,0-.19689.08922c2.51131,0.3982,5.12425.79216,7.73182,1.24635a4.86944,4.86944,0,0,1,1.24079.63145,4.77415,4.77415,0,0,1-1.20239.241,30.83971,30.83971,0,0,0-3.31721-.1332c0.56934,0.3025,1.13112.623,1.70959,0.9037,1.21124,0.58776,2.43982,1.13539,3.64048,1.74619a2.42277,2.42277,0,0,1,.5731.68612,2.40274,2.40274,0,0,1-.84122-0.02028c-1.4237-.57173-2.85745-1.12984-4.23827-1.80874a5.38888,5.38888,0,0,0-2.53929-.89241,3.54382,3.54382,0,0,1-1.02587-.36635l0.53577-.42859L69.53692,67.124c-1.46612.10219-2.9341,0.19332-4.3977,0.31064-0.91123.073-1.81791,0.1757-2.72247,0.28511a3.76347,3.76347,0,0,0-1.16927.23511c-1.2705.61769-2.50569,1.2988-3.76292,1.94087-1.96991,1.006-2.81909,2.79747-3.5014,4.82716a10.45552,10.45552,0,0,0,.13728,6.4102c0.4132,1.43005.91061,2.84279,1.368,4.26383a1.08385,1.08385,0,0,0,1.08658.86458c1.8132,0.00159,3.62344-.04241,5.43935.0055,1.40656,0.0371,2.82.16848,4.23016,0.29983a2.72345,2.72345,0,0,1,.79906.37714l-0.09366.24691-1.36228-.10258c-0.05515.938-.57352,0.99592-1.46538,0.87746-1.75951-.23371-3.53043-0.22121-5.29676-0.314-0.69985-.03676-1.4-0.08277-2.165-0.12845A1.2459,1.2459,0,0,0,57.97629,88.748a26.52394,26.52394,0,0,1,3.10069.27976,3.75171,3.75171,0,0,1,.81816.34348c-1.36441.90571-2.79218-.29375-4.06241,0.30926l1.59369,0.48033-0.821,1.06717-0.06136-.20028c-0.47017.02256-.93859,0.0667-1.41082,0.06393-1.94684-.01141-3.8951-0.04019-5.84229-0.05574a19.87173,19.87173,0,0,0-2.01256.0719c2.31791,0.3919,4.657.03175,6.97872,0.76234-0.45881.33959-.83259,0.7972-1.52711,0.22788a1.86812,1.86812,0,0,0-1.07712-.29241c-2.6351-.05789-5.26845-0.08806-7.90144-0.11528a0.90632,0.90632,0,0,0-1.11408.83583c3.31738,0.00646,6.57938-.00721,9.84929.28578l0.02949,0.40028a7.187,7.187,0,0,1-1.19459-.00447c-0.41994-.06727-0.80781-0.226-0.9852.317a0.60642,0.60642,0,0,1-.48134.08117,11.18539,11.18539,0,0,0-1.65147-.33327c-1.65795-.02722-3.31718-0.024-4.96164.06744a10.70072,10.70072,0,0,0-2.01611.48332c-0.26737-.07323-0.54454-0.15988-0.82509-0.22223a2.55575,2.55575,0,0,1-.56732-0.08018,2.12487,2.12487,0,0,0-2.26861.08725,2.46906,2.46906,0,0,1-1.06322-.25671l1.65727-1.17417-0.1085-.2126-1.30425.0106-0.11343-.30469a6.33931,6.33931,0,0,1,1.02077-.32282c0.38794-.058.7987-0.019,1.19279-0.11447l-3.4143-.80745,0.017-.36452c0.69371-.04884,1.3863-0.10554,2.08144-0.14436,0.724-.04044,1.44844-0.08575,2.1764-0.08794A1.10583,1.10583,0,0,0,42.866,88.69039c-1.41255.12669-2.73376,0.25867-4.06017,0.35858-0.68084.0513-1.44378,0.41854-1.92472-.58054a1.686,1.686,0,0,0-.60286-0.19286c-0.898-.37987-1.7918-0.772-2.68637-1.16166a0.54127,0.54127,0,0,1-.14053-0.09424,5.78724,5.78724,0,0,1-.7234-3.35252,13.69074,13.69074,0,0,0,.67156,1.74251,1.19169,1.19169,0,0,0,.77234.53089c1.98288,0.18442,3.97142.39115,5.94769,0.43281a3.89553,3.89553,0,0,0,3.7016-2.496,74.64739,74.64739,0,0,0,2.59661-7.59573c0.40243-1.28769-.72584-2.299-1.12328-3.4447-0.03451-.09949-0.16285-0.176-0.19149-0.2748-0.44225-1.52554-1.74721-1.87612-2.99175-2.39509-1.30937-.546-2.57305-1.22881-3.84356-1.881a2.7773,2.7773,0,0,0-2.127-.20823c-1.45057.39344-2.93684,0.68542-4.40746,1.02225a1.53074,1.53074,0,0,0-1.18228,1.07869,6.17082,6.17082,0,0,1-3.17565,3.077,0.969,0.969,0,0,1-.46868-0.38825,4.64951,4.64951,0,0,1,.53508-1.18174c0.488-.72733,1.02861-1.4173,1.49864-2.05616-1.07743-.17986-2.235.89428-3.59,0.19033,0.17071-.82212,1.51122-1.685,1.96469-1.18822,0.78352,0.85833,1.34618.22119,1.8973,0.08145,1.82086-.46164,3.59471-1.06333,5.21584-1.55906L24.7179,62.703c0.61356-.66,1.18426-0.17133,1.73062.02554a9.30118,9.30118,0,0,0,1.86914.54228l-6.44235-5.62528c0.55473-.5787.99181-0.16333,1.42295,0.117a5.7571,5.7571,0,0,0,1.37931.7493c-0.66565-.84906-1.349-1.686-1.9847-2.55553A2.63289,2.63289,0,0,1,22.44,55.13279a2.09682,2.09682,0,0,1,.85932.2772c0.70765,0.7282,1.34516,1.523,2.02072,2.28272a57.9565,57.9565,0,0,0,4.33,4.76642,13.80572,13.80572,0,0,0,5.0745,3.06676c2.60939,0.81756,5.15624,1.9014,7.73129,2.86634a3.8263,3.8263,0,0,0,.53755.098,29.75663,29.75663,0,0,1-1.588-3.19936c-0.62943-1.76446-2.20827-2.52016-3.52112-3.53818a26.9668,26.9668,0,0,0-2.75948-1.61951c-2.0663-1.23775-4.124-2.49132-6.21876-3.75877,0.19915-.58608.60515-0.388,0.97235-0.19292a19.9484,19.9484,0,0,0,2.47535,1.20055c-0.34435-.50294-0.66051-1.02711-1.03927-1.50412-0.66737-.84054-1.39645-1.63537-2.04725-2.48708a2.58282,2.58282,0,0,1-.25254-0.91068,2.45366,2.45366,0,0,1,.73049.38845c1.61353,1.81373,3.1886,3.66078,4.81011,5.46739a5.72881,5.72881,0,0,0,1.316,1.03006c1.02593,0.61631,2.08223,1.177,3.12611,1.76045l0.24206-.17171c-0.447-.79428-0.90244-1.58459-1.33739-2.38462-0.19792-.364-0.328-0.76145-0.53629-1.11924a35.65371,35.65371,0,0,0-2.09441-3.44278,8.00537,8.00537,0,0,0-1.84528-1.457c-1.44321-1.03363-2.85271-2.13565-4.37157-3.0307a6.604,6.604,0,0,0-2.45656-.57895c-0.8063-.10773-1.62052-0.02862-2.42872-0.12128-1.67578-.19214-3.35326-0.40813-5.02126-0.707a2.39545,2.39545,0,0,1-.74013-0.87876,5.57763,5.57763,0,0,1,.81578-0.17639c0.37343-.02723.75825,0.02034,1.1343,0.00535,1.29474-.05159,2.58785-0.116,3.88139-0.1769,0.18226-.00857.36345-0.02514,0.7675-0.05377-0.35839-.27351-0.54953-0.45193-0.76736-0.58045-1.57041-.92657-3.14679-1.842-4.71949-2.76432a1.33928,1.33928,0,0,1-.45049-0.31525c0.17755-.92429-0.72943-1.04433-1.15394-1.5136q-0.231-.25539-0.463-0.51l0.18474-.279,3.50438,2.1411,0.16593-.16452c-0.64681-.9668-1.28078-1.94181-1.94368-2.89832-0.831-1.19909-1.69809-2.3753-2.51754-3.58139a1.87861,1.87861,0,0,1-.12847-0.7336,1.5769,1.5769,0,0,1,.76129.18476c0.64506,0.81738,1.22386,1.68413,1.82988,2.53092a4.11469,4.11469,0,0,0,.85807.94284c-0.45427-2.06765-.91589-4.1344-1.35211-6.20431a2.09523,2.09523,0,0,1,.08832-0.69064,1.6919,1.6919,0,0,1,.54282.50127c0.42869,1.44944.79761,2.91144,1.20887,4.36479,0.45971,1.62457.60045,3.45166,1.50157,4.81552a14.06527,14.06527,0,0,0,4.98889,4.69256,52.06823,52.06823,0,0,1,5.05494,3.538c0.35962,0.25587.72243,0.507,1.23883,0.86907a3.86163,3.86163,0,0,0-.1529-0.62358c-0.71234-1.45224-1.41336-2.90976-2.15736-4.348-0.873-1.68774-1.8385-3.336-2.66789-5.041-1.12271-2.30807-2.133-4.66229-3.232-6.98059C24.466,32.575,23.612,31.00137,22.8554,29.38911a2.39187,2.39187,0,0,1,.02642-1.02691,2.30615,2.30615,0,0,1,.89975.48572c0.64731,1.06881,1.2127,2.1824,1.7983,3.28413,0.12614,0.23732.21279,0.49284,0.31724,0.73906,0.01573-1.419.01457-2.8122,0.06226-4.19957a1.88309,1.88309,0,0,1,.3417-0.687,1.94876,1.94876,0,0,1,.47388.66847c0.084,0.72236.004,1.45176,0.11157,2.17068,0.30915,2.067.33941,4.16535,1.188,6.17762,0.7318,1.73541,1.41692,3.48746,2.17517,5.21307,1.13036,2.57246,2.27368,5.14148,3.48161,7.68381a18.20261,18.20261,0,0,0,1.61529,2.57054,7.8948,7.8948,0,0,0,1.03259,1.021l0.29138-.13262c-0.18763-1.08438-.32165-2.17694-0.57766-3.25084-0.26616-1.11654-.68372-2.20962-0.95963-3.32518a1.225,1.225,0,0,1,.37346-0.91288c1.25268,1.68617,1.03526,3.68293,1.85421,5.51008,0.45174-1.21033.87885-2.35447,1.30571-3.4987a1.0713,1.0713,0,0,1,.14152-0.36352c0.20363-.21328.43937-0.39587,0.66218-0.59082l0.12411,0.8441,0.12316-.02113a2.05247,2.05247,0,0,1,.25039.92249c-0.48192,1.38311-1.03235,2.73788-1.58686,4.08925a0.45476,0.45476,0,0,1-.52424.02955,0.1326,0.1326,0,0,0-.04592.05922c0.3798,1.80719.66708,3.63277,1.16732,5.4165,0.73651,2.6262,2.67148,4.68932,4.04607,7.01567,1.10969,1.878,2.41045,3.6555,3.62962,5.47564a4.0407,4.0407,0,0,0,.34781.36587c0.10223-1.15105.20637-2.17518,0.28188-3.20384,0.17061-2.324.36735-4.6448,0.4777-6.977,0.10521-2.22336.11866-4.459,0.16328-6.69029,0.015-.7515.01076-1.50543-0.00479-2.25959a1.06414,1.06414,0,0,0-.1439-0.53136,35.13984,35.13984,0,0,1-2.06366-3.18539c-0.89584-1.79485-2.52017-2.688-4.06915-3.68377-1.65362-1.063-3.34982-2.0548-5.03441-3.0649a2.9643,2.9643,0,0,0-1.12491-.53708c-1.10489-.07921-1.4665-0.94934-1.99448-1.66217l0.09954-.214,2.77494,1.56237,0.13685-.13208a18.90082,18.90082,0,0,1-1.84592-2.50415c-0.46772-.90178-1.72942-1.33022-1.70707-2.79438a11.93143,11.93143,0,0,1,1.02725.87648q2.585,2.85086,5.14519,5.7236a8.24464,8.24464,0,0,0,3.58487,1.9822C42.361,43.27616,42.0233,42.7216,41.672,42.175c-1.367-2.1273-2.76842-4.23534-4.09895-6.38294-1.13265-1.82823-2.17954-3.70415-3.28012-5.55061a3.50355,3.50355,0,0,0-.64094-0.77482c-2.08307-1.90213-4.18709-3.78127-6.25721-5.69732a7.13309,7.13309,0,0,1-.8587-1.20149l0.249-.29619a4.70374,4.70374,0,0,1,1.07292.55485c1.364,1.22859,2.69059,2.49915,4.03507,3.74986a2.98283,2.98283,0,0,0,.4483.26523c-0.67867-2.15115-2.71946-3.60251-3.0003-5.77231l0.27256-.18638a4.815,4.815,0,0,1,.69035.69638c1.62855,2.49124,3.20611,5.0135,4.8662,7.48505,0.90523,1.34771,1.94111,2.615,3.04759,4.09134-0.21718-1.0662-.4063-1.96112-0.57981-2.85771-0.12448-.64321-0.24243-1.28775-0.338-1.93324-0.18391-1.2427-.28856-2.49453-0.55523-3.7257a3.62621,3.62621,0,0,0-.8622-1.28964c-1.63006-1.97617-3.253-3.95906-4.92941-5.89709-0.80522-.93092-1.7336-1.75813-2.58-2.65651a1.96929,1.96929,0,0,1-.26-0.66628,1.7362,1.7362,0,0,1,.75413.12038c0.7513,0.57324,1.46092,1.20356,2.30167,1.91035-0.52411-1.25328-.99981-2.39276-1.47795-3.53139a1.16169,1.16169,0,0,1-.17129-0.37651,4.53429,4.53429,0,0,1,.13669-0.71045,1.70144,1.70144,0,0,1,.58431.40415c0.56589,1.08957,1.07029,2.20658,1.62662,3.3007,0.707,1.39035,1.35862,2.81681,2.19736,4.13346A19.95174,19.95174,0,0,0,36.20787,21.809ZM59.82474,67.52293l4.05431-1.13862-0.12542-.31726-3.91974,1.46586c-1.96665.53483-3.71959,1.70544-3.81121,2.55637,0.70832-.39333,1.4407-0.741,2.10336-1.18537C58.73142,68.498,59.26132,67.9873,59.82474,67.52293ZM55.39147,48.31469q-0.59372,1.71783-1.18744,3.43567l0.34838,0.12818,0.82872-3.571a6.18129,6.18129,0,0,0,.64213-1.10451c0.53757-1.58508,1.01474-3.19487,1.53856-4.78573,0.52454-1.593,1.08244-3.17268,1.61326-4.76324a3.316,3.316,0,0,0,.08251-0.64477A30.00919,30.00919,0,0,0,57.978,40.22474C57.09735,42.91393,56.25127,45.617,55.39147,48.31469ZM50.28866,66.60288l0.35347,0.02807c0.23024-2.48379.564-4.95464,0.66157-7.45506,0.09744-2.49641-.04164-5.02242-0.077-7.53546l-0.26955-.02527Q50.62289,59.109,50.28866,66.60288Zm-0.574-31.02916-0.22393.00053c0.45926,1.77094-.15723,3.45207.40947,5.32491,0.54279,1.79382.30631,3.76662,0.3587,5.65755,0.05849,2.11159.05657,4.21957,0.08095,6.32913l0.28157,0.02031c-0.08169-5.30324-.16338-10.60647-0.24648-16.001l-0.50462.29657ZM45.79021,86.07249c0.93361,0.30534,1.31827.03537,1.45881-.72485,0.26863-1.45307.62622-2.88276,0.88177-4.3389,0.14122-.80474.15042-1.64342,0.21914-2.46679l-0.06162.00292ZM54.724,89.66191l0.08531-.22656a3.301,3.301,0,0,0-.95884-0.41372c-1.26688-.09-2.53236-0.10346-3.799-0.15923-0.55668-.02452-0.77942.19941-0.62775,0.84261ZM48.50241,55.86035q-0.25335,5.427-.50671,10.854l0.321,0.03823C48.84583,63.1809,48.5366,59.50609,48.50241,55.86035Zm-4.729,31.31515c-1.60249-.06633-3.12477-0.29725-4.307,1.03112,1.08135-.00879,2.06821-0.0566,3.05893-0.01121A1.1283,1.1283,0,0,0,43.77339,87.1755ZM63.63082,66.93324l8.06894-.3278C68.95539,66.38821,66.25591,65.65,63.63082,66.93324ZM35.95563,66.345l-0.078.27524,7.56515,3.25336,0.13631-.39322Q39.76738,67.91269,35.95563,66.345Zm14.715,14.37579-0.20736-.00429c-0.00495.62225-.00563,1.24493-0.01583,1.86662-0.01624.98984-.06417,1.97751-0.03657,2.9698a1.61456,1.61456,0,0,0,.45714.5965,1.04311,1.04311,0,0,0,.36763-0.4589C51.07148,84.03366,50.86536,82.3773,50.67064,80.7208Zm-7.9834,5.69269c0.55545-.1653,1.39551-0.16086,1.55237-0.50818A32.30211,32.30211,0,0,0,45.47469,82.114ZM54.09568,53.4693L53.675,53.32393l-1.64431,6.42543,0.22573,0.0777Q53.176,56.64817,54.09568,53.4693ZM49.37594,90.23178l0.03181,0.22134,7.16406-.05824-0.02112-.22143Zm-5.132,1.41318c-1.34592.34313-2.75992-.29748-3.75519,0.87211C42.75458,92.82193,43.57626,92.66715,44.24392,91.645Zm11.37339-46.639,0.29185,0.02176c0.60605-2.00058-.37288-4.06968-0.406-6.099Zm-6.897,37.36283-0.16268-.02745-0.78405,3.7159,0.2542,0.20744a1.37863,1.37863,0,0,0,.60917-0.49328C48.713,84.64453,48.70194,83.50439,48.72033,82.36875Zm-2.08253-8.889,0.16427-.02742a2.268,2.268,0,0,0,.04917-1.08927c-0.64706-1.16145-1.39489-2.27357-2.10575-3.40378l-0.10557.07665Zm0.918,5.9299-0.37051-.15108-1.92856,6.01281L45.50047,85.37Zm1.93355,1.06024-0.27829-.03834-0.01632,5.57308C50.07738,84.2337,49.16613,82.29261,49.48934,80.46991Zm-13.73876,6.8164a3.11288,3.11288,0,0,0,3.704-.03011ZM48.5974,44.79285c-0.10447-1.87986.88353-3.71247-.22859-5.60961ZM43.24078,89.55738c1.30131,0.518,2.6528.12474,2.52639-.88954l-1.61625.72842-0.24119-.71985Zm6.283-31.93973,0.23146,0.03721,0.07608-4.62473-0.336-.02961Zm-22.32221-9.4225c-1.90778-.96933-3.62741-0.46313-5.34873-0.52624C23.57436,47.83828,25.29587,48.00765,27.20158,48.19515Zm26.89737,37.8621,0.39725-.08681L53.401,82.299l-0.23255.05ZM48.43169,73.47232l0.3437,0.02437,0.12235-3.08713-0.21724-.03021C48.7211,71.42925,47.93308,72.35231,48.43169,73.47232ZM53.788,88.40451a1.08261,1.08261,0,0,0-1.32493-.97328,0.58848,0.58848,0,0,0-.22923.54635C52.58963,88.76543,53.19845,88.305,53.788,88.40451ZM47.04966,89.521c1.39075,0.4115,1.63317.333,1.64006-.53077C47.45749,88.70209,47.19325,88.7876,47.04966,89.521Zm4.6505-11.70259-0.22687.06184,0.798,3.73813,0.30664-.04444Zm-3.09421,9.69223c-1.08267-.39707-1.22162-0.30762-1.12261.7455C48.05722,88.33049,48.66244,88.48147,48.60594,87.51068ZM48.7671,36.90736L48.99729,36.925l0.08428-3.25513L48.753,33.63584ZM46.37845,87.5418c-0.98315-.40149-1.09445-0.346-1.23344.57669C46.038,88.4668,46.23374,88.38369,46.37845,87.5418Zm9.2039,0.96594c-0.33488-1.13088-.37614-1.15679-1.28926-0.84644A1.00657,1.00657,0,0,0,55.58235,88.50775ZM63.41042,87.265l-0.02781-.17681-3.905.03175,0.01569,0.17691ZM44.78512,91.14158l-0.05878-.1061L42.128,91.0566,42.1487,91.163Zm5.065-44.8712-0.17553-.0154-0.01742,3.87744,0.19167,0.01706ZM24.05131,29.88758l-0.29006.11407,1.45864,2.98066,0.1364-.05505ZM50.44365,70.71674l-0.18816.04068,0.279,2.91781,0.19128-.00807Zm1.108-.54568-0.30148.02679,0.655,3.2384,0.15712-.01687Zm-1.65-39.80908-0.28643-.00846L49.93,33.64539l0.08-.00189Zm3.18323,51.33222,0.175-.00761-0.93159-4.00046-0.09893.01528Zm-1.17363-5.5574L51.4055,74.26692C50.464,75.3185,52.11152,75.68894,51.91124,76.13681Zm0.733,9.88839L51.89,84.10153C52.1147,85.90576,52.1147,85.90576,52.64424,86.0252Zm13.4144-26.90148-0.23617-.07333-0.51,2.265,0.20618,0.0631ZM50.50424,87.87851a3.14929,3.14929,0,0,0,.80843.39913,0.50409,0.50409,0,0,0,.29227-0.3765,1.022,1.022,0,0,0-.499-0.47068A1.61043,1.61043,0,0,0,50.50424,87.87851ZM45.30542,20.45013l0.2403-.05709-0.5004-2.66326ZM51.30066,69.541l0.27625,0.00036-0.18831-1.96955-0.11355.0025ZM49.07274,67.7498l-0.20318-.02507L48.83274,69.5736l0.29987,0.02263Zm7.8996,21.83368-1.56762-.379C55.917,89.92717,56.44133,90.02068,56.97234,89.58348ZM50.15776,76.1947l-0.23409-.01461,0.05421,1.9474L50.20225,78.14Zm-2.22614.16329,0.16408,0.04518L48.39,74.55952l-0.28568-.06576ZM42.54188,65.72118c-0.27974.75066,0.23364,0.895,0.761,1.03419Zm-0.36464-25.3091-0.17712.11841,1.36672,1.81593,0.118-.078ZM46.8155,90.86775l-0.00623.27721,1.67217-.01359,0.00272-.118ZM48.64,45.68248l-0.17053-.05624,0.01623,2.28034L48.67032,47.921Z"/><path d="M52.03052,94.7276c-1.79163.04013-3.708-.45557-5.05819,0.946l1.57937,0.214a3.535,3.535,0,0,1-4.07477-.45313l2.39677-.37305c-1.87694-.51445-3.69507.28268-5.558-0.46468C44.85527,94.26454,48.376,93.73266,52.03052,94.7276Z"/></g></svg>