<svg xmlns="http://www.w3.org/2000/svg" xmlns:xlink="http://www.w3.org/1999/xlink" version="1.1" x="0px" y="0px" viewBox="0 0 100 115" style="enable-background:new 0 0 100 100;" xml:space="preserve"><path d="M62.7,23.5c0.1,0.4-0.2,0.5-0.2,0.7c0.1,0,0.3,0,0.4,0c1.1-0.4,2-1.3,3-1.9c0.8-0.5,1.5-1.1,2.2-1.6  c0.3-0.3,0.6-0.5,0.6,0.2c0,0.4,0.3,0.2,0.5,0.1c0.8-0.3,1.6-0.6,2.5-0.6c-0.8,0.6-1.7,0.9-2.6,1.2c-1,0.4-1.8,0.9-2.7,1.4  c-0.9,0.5-1.7,1.1-2.8,1.4c0.4,0.4,0.6,0.2,0.8,0.1c1.2-0.4,2.5-0.8,3.7-1.3c0.2-0.1,0.4-0.2,0.5,0c0.2,0.3-0.1,0.4-0.3,0.5  c-0.5,0.2-1.1,0.5-1.7,0.6c-1.6,0.3-3,1-4.5,1.5c-0.6,0.2-1.3,0.4-1.9,0.6c-0.3,0.1-0.7,0.1-0.9,0.5c-0.2,0.4-0.6,0.4-1,0.6  c-0.8,0.3-1.5,0.6-2.2,1c2.6,0.5,5.1,0.9,7.8,0.6c0.5-0.1,1-0.1,1.3-0.7c0.1-0.3,0.4-0.5,0.7-0.7c0.8-0.5,1.6-1,2.3-1.6  c0.4-0.3,0.4-0.3,1.1,0.2c-1.2,0.6-2.4,1.3-3.3,2.3c0.1,0.3,0.3,0.2,0.4,0.2c0.8-0.5,1.7-0.2,2.5-0.5c0.4-0.1,0.8-0.1,1.2,0.1  c0.8,0.3,1.5,0.1,2.1-0.4c0.1-0.1,0.3-0.2,0.4-0.1c0.1,0.1,0.1,0.3,0,0.4c-0.5,0.7-1.2,1.1-2.1,0.8c-0.9-0.3-1.8-0.2-2.7-0.1  c-1,0.1-2,0.2-3.1,0.6c1,0.9,2.1,1.5,3.4,1.6c0.6,0,1.1,0.1,1.6,0.5c0.1,0.1,0.3,0.3,0.2,0.5c-0.1,0.2-0.3,0.2-0.5,0.1  c-0.7-0.4-1.4-0.5-2.1-0.6c-0.7-0.1-1.3-0.3-1.8-0.7c-0.6-0.5-1.1-0.6-1.9-0.4c-0.3,0.1-0.8,0.3-0.9-0.4c0-0.3-0.4-0.2-0.6-0.2  c-1.7,0.1-3.3-0.1-4.9-0.4c-2.3-0.4-4.3,0.5-6.1,1.7c-1.7,1.1-3.4,2.2-4.9,3.5c-2.3,2-4.9,3.7-6.9,6.2c-1.7,2.1-3.4,4.1-4.8,6.5  c-0.2,0.4-0.6,0.8-0.5,1.3c0.3,0.3,0.6,0,0.8-0.1c1.4-1.2,3.2-1.4,4.8-2.1c1.4-0.5,2.9-1.1,4.3-1.7c0.4-0.2,0.8-0.3,1.2-0.5  c1.1-0.3,2-1.5,1.7-2.7c-0.1-0.7,0.1-1.1,0.3-1.7c0.2-0.6,0.7-0.8,1.2-1.1c0.4-0.2,0.7-0.5,1.1-0.7c0.2-0.1,0.4-0.3,0.6-0.1  c0.2,0.2,0.1,0.4,0,0.5c-0.1,0.4-0.1,0.8,0,1.2c0.2,0.6-0.1,1-0.5,1.3c-0.5,0.4-1,0.7-1.6,1c-0.4,0.2-0.5,0.4-0.6,0.8  c0,0.2-0.2,0.4,0,0.6c0.2,0.2,0.4,0.1,0.6,0c1.6-0.7,3.2-1.3,4.9-1.7c0.9-0.2,1.7-0.7,2.2-1.6c1-2.1,2.9-2.9,4.9-3.6  c0.9-0.3,1.8-0.7,2.7-0.6c0.1,0.4-0.2,0.3-0.3,0.3c-1.5,0.4-3,0.9-4.4,1.6c-0.9,0.5-1.6,1.2-2.2,2.1c-0.3,0.5-0.6,0.9-0.8,1.4  c1.4-0.6,2.9-0.8,4.3-1.8c0.2,0.6-0.3,0.8-0.6,1c-1.2,0.5-2.5,1.1-3.7,1.5c-3.2,1.1-6.4,2.1-9.6,3.1c-0.4,0.1-0.8,0.1-1,0.5  c0.2,0.2,0.5,0.1,0.7,0c2.5-0.4,4.9-0.9,7.4-0.3c0.8,0.2,1.7-0.2,2.6-0.3c-0.9,0.8-2,0.8-3,0.7c-4.1-0.4-8,0.3-11.9,1.6  c-0.8,0.3-1.6,0.7-2.2,1.3c-0.6,0.6-1.5,0.9-2.3,1.3c-1.9,1-3.4,2.5-4.6,4.2c-0.8,1.1-1.7,2.3-2.4,3.5c-1.1,2-2.2,4.1-3.3,6.2  c0.5,0.1,0.7-0.2,1-0.4c1.3-0.9,2.6-1.9,4-2.5c2.6-1.1,5.4-1.8,8.1-2.6c-2.4,1.5-5.4,1.9-7.8,3.5c0.1,0.3,0.3,0.3,0.4,0.2  c1-0.5,2.1-0.4,3.2-0.3c1.8,0.2,3.6,0.4,5.6-0.4c-1,0.8-2.3,1.1-3.5,1.1c-1.4-0.1-2.8-0.4-4.3-0.1c-1.7,0.4-3.4,1.1-4.8,2.1  c-1.3,1-2.7,2-3.8,3.2c-0.3,0.3-0.6,0.6-0.7,1c-0.7,2.5-2,4.9-2.2,7.6c-0.1,0.6-0.2,1.1-0.8,1.4c1.5,0.3,2.3,1.9,4.2,1.6  c-0.8,0.6-0.2,1-0.1,1.5C23.4,81,23.2,81,23.2,81c-0.6-0.9-1.7-1-2.6-1.6c-0.5-0.3-1.2-0.4-1.8,0c-0.4,0.2-0.8,0.2-1.2,0.1  c-0.6-0.2-1.2-0.2-1.9-0.1c-0.7,0.1-1.5,0.3-2.2-0.2c-0.2-0.1-0.4-0.1-0.6,0.1c-0.6,0.3-1.2,0.4-1.9,0.5c-0.7,0.1-1.4,0.6-1.9,1  c-0.4,0.3-0.6,0.6-1.1,0.7c-0.3,0.1-0.6,0.4-0.8,0.6c-0.2,0.2-0.4,0.6-0.8,0.3c-0.4-0.4-0.5-0.7,0-1.1c0.6-0.6,1.3-1.2,2.1-1.5  c1-0.4,1.9-1,2.7-1.7c1-0.9,2-1.8,3-2.7c0.9-0.8,1.8-1.6,2.1-2.9c0,0,0-0.1,0-0.1c1.3-0.4,1.5-1.6,2.1-2.6c1.4-2.2,2.7-4.5,3.9-6.8  c0.5-1,0.8-2,1-3c0.1-1,0.5-2.1,0.4-3.2c0-0.1,0-0.2,0-0.3c0.7-1.7,0.9-3.6,1.3-5.4c0.1-0.6,0.2-1.2,0.9-1.5  c0.4-0.2,0.5-0.8,0.5-1.3c0.2-1.2,0.4-2.5,0.5-3.8c0-0.3-0.1-0.7,0.4-1.1c0.1,1.1,0,2.2,0.1,3.3c0.5-0.7,1.2-1.3,1.9-1.8  c0.1,0,0.1-0.1,0.1-0.2c-0.4-1.1,0.4-0.9,1-1c0.2,0,0.4-0.3,0.7-0.1c-1.8,1.9-3.4,3.9-4.6,6.3c1,0.1,1.7-0.6,2.5-0.5  c0.1,0.4-0.2,0.4-0.4,0.5c-0.3,0.1-0.7,0.2-1,0.4c-0.9,0.4-1.7,0.9-1.8,2c-0.1,0.9-0.5,1.7-0.7,2.6c-0.1,0.7-0.3,1.4,0.1,2.1  c0.2,0.3-0.2,0.8,0.1,1.1c0.2,0,0.3-0.1,0.3-0.3c0.8-1.9,1.8-3.8,2.9-5.6c1.4-2.6,2.9-5.1,4.4-7.7c0.2-0.3,0.2-0.8,0.8-0.7  c0.2,0,0.3-0.3,0.4-0.5c0.6-1,0.9-2.2,1.4-3.3c1.9-4,4.6-7.4,7.9-10.4c1.8-1.7,3.5-3.3,5.6-4.6c0.4-0.2,0.7-0.5,1.4-0.6  c-1.5,1.2-3.1,2-4.4,3.4c1.8-0.4,3.5-0.8,5.2-1.2c-0.9,0.7-1.8,1-2.8,1.2c-1.6,0.3-3,1-4.2,2.1c-0.9,0.8-1.8,1.6-2.7,2.4  c-1.4,1.2-2.4,2.6-3.3,4.2c-0.6,0.9-0.4,2.1-1.1,3.2c0.6-0.1,0.7-0.4,0.9-0.6c1.5-1.7,3.2-3.2,4.8-4.8c2.2-2.2,5-3.6,7.7-5  c1.4-0.7,2.9-1,4.3-1.6c2.4-0.9,4.8-2,6.9-3.6C61.9,23.8,62.3,23.5,62.7,23.5z M21,69.4c-1.1,1.2-2.1,2.4-3.2,3.5  c-0.6,0.6-1.2,1.3-1.9,1.9c-0.9,0.8-1.8,1.6-2.7,2.5c-0.4,0.4-0.8,0.7-1.2,1.1c1-0.2,2-0.4,3-0.2c1.4,0.4,2.5-0.1,3.2-1.3  c0.1-0.2,0.2-0.4,0.4-0.5c0.6-0.4,0.6-1,0.5-1.7c-0.7,0.3-1,0.9-1.4,1.4c-0.5,0.6-1.2,0-1.6,0.5c0.5-1.2,2-3.1,2.7-3.6  c-0.2,0.6-0.7,1-1,1.5c0,0.1,0,0.2,0,0.3c0.1,0.2,0.3,0.1,0.4,0c0.6-0.7,1.5-1.1,1.8-2C20.3,71.7,20.8,70.7,21,69.4z M40.3,37.6  c-3.2,2.9-5.8,6.3-8,10.1c0.2,0,0.2,0,0.2,0c0.7-0.7,1.3-1.4,2-2.2c0.5-0.5,0.8-1.1,1.1-1.8c0.6-1.2,1.4-2.2,2.2-3.2  C38.7,39.5,39.7,38.7,40.3,37.6z M47.3,41.1c0.4-0.2,0.6-0.8,1.1-0.4c0.1,0.1,0.3-0.1,0.5-0.3c0.5-0.5,0.3-1,0.1-1.5  C47.6,39.6,47.5,39.8,47.3,41.1z M33.3,50.6c2.5-1.4,2.1-1.1,2.5-2.1C34.3,49,34.2,49.1,33.3,50.6z M31.6,49.8  c-0.6,0.4-1.2,0.8-1.4,1.7C31.1,51.1,31.2,50.3,31.6,49.8z M48.4,31.4c-0.9,0.1-1.3,0.3-1.7,1.2C47.3,32.1,48,32.1,48.4,31.4z   M23.5,64.6c-0.7,0.2-0.9,0.7-1.1,1.1c-0.1,0.1-0.1,0.2,0.1,0.3c0.1,0.1,0.2,0.1,0.3,0C23.1,65.5,23.3,65.1,23.5,64.6z M43.2,35.1  c-0.8,0.2-1.1,0.6-1.3,1.1C42.4,36,42.8,35.7,43.2,35.1z M18.5,71.5c0.6-0.3,0.7-0.8,0.8-1.2C19.1,70.6,18.6,70.9,18.5,71.5z   M23.8,60.7c0,0.1,0.1,0.2,0.2,0.1c0.5-0.5,0.5-0.5,0.3-1.1C24,60,23.9,60.4,23.8,60.7z M18.2,78.8c-0.1-0.2-0.3-0.2-0.5-0.1  c-0.1,0-0.3,0-0.2,0.2c0.1,0.2,0.3,0.2,0.5,0.2C18.1,79,18.2,78.9,18.2,78.8z M25.2,61.5c-0.4,0.3-0.7,0.4-0.6,0.9  C24.9,62.2,25.1,62,25.2,61.5z M37.1,48.1C37,48.1,37,48,36.9,48c-0.2,0-0.4,0.1-0.5,0.2c-0.1,0.1-0.1,0.2,0,0.3  c0.1,0.1,0.3,0,0.4-0.2C36.9,48.3,37,48.2,37.1,48.1z M20.1,74.5c0.4-0.2,0.3-0.5,0.2-0.8C20.2,73.9,20,74.1,20.1,74.5z M44.3,34.1  c-0.1,0-0.2-0.1-0.2,0c-0.1,0.1-0.2,0.2-0.3,0.3c0,0.1,0.1,0.1,0.2,0C44.1,34.4,44.2,34.2,44.3,34.1z M50,30.5  c-0.3-0.2-0.5,0.1-0.7,0.3C49.7,31,49.9,30.8,50,30.5z"/><path d="M84.9,33c0.6,0,1.3,0,1.9,0c0.3,0,0.5,0.1,0.5,0.3c0,0.2-0.1,0.4-0.3,0.4c-0.7,0.3-1,0.9-1.2,1.5c-0.5,1-1.2,1.8-2.4,1.8  c-0.8,0-1.6,0.5-2.4,0c-0.3-0.2-0.8,0.2-1.1,0.6c-0.2,0.2-0.3,0.3-0.5,0.1c-0.1-0.1,0-0.3,0.1-0.4c0.7-0.4,1-1.2,1.4-1.9  c0.3-0.5,0.6-1,0.8-1.6c0.2-0.6,0.7-0.9,1.4-0.9C83.8,33,84.3,33,84.9,33C84.9,33,84.9,33,84.9,33z M82,36.4  c1.9,0.1,2.8-0.4,3.3-1.7c0.1-0.3,0.5-0.6,0.2-0.8c-0.5-0.3-0.3,0.4-0.5,0.5c-0.2,0.1-0.4,0.2-0.5,0.3C83.6,35.2,82.8,35.6,82,36.4z   M85,34c-0.9-0.4-1.4-0.2-1.9,0.2c-0.2,0.2-0.4,0.3-0.3,0.6c0.1,0.3,0.4,0.2,0.6,0.1C83.8,34.6,84.3,34.3,85,34z"/><path d="M70.6,48.3c-0.2,1.1-0.2,2.2-0.2,3.3c0,0.6-0.4,1.1-0.8,1.5c-1,1-2.3,1.4-3.7,1.1c-0.4-0.1-0.3-0.4-0.1-0.6  c0.2-0.2,0.5-0.4,0.7-0.7c0.2-0.3,0.3-0.6,0.3-0.9c0-1.6,1-2.4,2.3-3c0.4-0.2,0.7-0.4,0.8-0.9c0-0.3,0.1-0.7,0.5-0.7  C70.7,47.5,70.6,47.9,70.6,48.3z M69,51c0.5,0.1,0.2,0.6,0.6,0.6c0.1-0.5,0.3-1,0.2-1.5c0-0.3-0.1-0.5-0.4-0.4  c-1,0.2-1.9,1.2-1.9,2.2c0,0.2-0.1,0.4,0.1,0.5c0.2,0.1,0.5,0.1,0.6-0.2C68.5,51.9,68.8,51.4,69,51z"/><path d="M83.7,21.3c0-0.4-0.1-0.8-0.2-1.2c-0.1-0.5,0.2-0.7,0.7-0.6c1,0.3,2.4,2.1,2.4,3c0,1.2-1.1,2.7-2.3,3.1  c-0.4,0.1-0.5,0.3-0.7,0.6c-0.1,0.2-0.2,0.5-0.4,0.7c-0.2,0.2-0.4,0.3-0.6,0.2c-0.3-0.1-0.2-0.4-0.1-0.6c0.7-0.7,0.6-1.6,0.5-2.5  c-0.1-0.5,0.1-0.9,0.4-1.3C83.6,22.2,83.7,21.8,83.7,21.3z M84.6,22.9c0.6,0.5-0.1,1.1,0.1,1.6c1.6-1.3,1.4-2.9-0.3-3.6  c0.2,1.2-0.4,2.1-0.8,3.3C84.2,23.8,84.1,23.2,84.6,22.9z"/><path d="M42.2,58.1c0.4,0,0.5,0.2,0.7,0.4c0.8,0.9,1.6,0.7,2.4,0c0.5-0.5,0.9-1,1.3-1.6c-0.7-0.5-1.3-1.2-2.2-1.4  c-0.9-0.2-1.9,0.2-2.2,0.9c-0.3,0.5-0.1,0.7,0.4,0.7c0.6-0.1,1.3-0.1,1.9-0.1c0.3,0,0.6,0,0.6,0.6c-1.3-0.2-2.6,0.3-3.9,0.1  c-0.1-0.4,0.1-0.6,0.1-0.8c0.6-2,2.5-2.8,4.3-1.6c0.8,0.5,1.5,0.9,2.5,0.8c0.2,0,0.4,0.1,0.4,0.3c0.1,0.2-0.1,0.4-0.3,0.4  c-1,0.2-1.4,1.1-2,1.8c-0.4,0.5-0.9,0.9-1.5,1.2c-1,0.4-2.3-0.1-2.7-1.1C42,58.4,42,58.3,42.2,58.1z"/><path d="M72.4,61.9c0.5,0.3,0.3,0.9,0.8,1.3c0.5-0.3,1-0.5,1.7-0.3c0.9,0.3,1.4,0.8,1.3,1.7c-0.1,1.1-0.4,2.1-0.3,3.2  c0,0.4-0.2,0.6-0.6,0.5c-1.3-0.2-2.4-0.5-3.1-1.8c-0.3-0.6-0.4-1.1-0.1-1.5c0.6-0.8,0.6-1.6,0.2-2.5C72.2,62.3,72.2,62.1,72.4,61.9z   M75.2,67.4c0.1-0.9,0-1.9,0.3-2.8c0.1-0.5-0.3-1-0.9-1.1c-0.2,0-0.5-0.1-0.7,0.2c-0.2,0.2-0.1,0.5,0,0.7c0.3,0.5,0.6,0.9,0.9,1.3  c0.1,0.2,0.3,0.3,0.1,0.5c-0.2,0.2-0.4,0.1-0.5,0c-0.3-0.2-0.5-0.5-0.7-0.8c-0.2-0.3-0.4-0.7-0.8-0.8C72.1,66.3,72.9,67.4,75.2,67.4  z"/><path d="M87.8,51c0.4,0.1,0.8,0,1.1-0.1c0.4-0.2,0.7-0.4,0.7-0.9c0-1.5,1.1-2.1,2.4-1.3c0.5,0.3,1,0.5,1.5,0.5  c0.6,0.1,0.7,0.3,0.3,0.7c-0.7,0.7-1.3,1.4-1.9,2.1c-1,1-1.7,1-2.7,0c-0.2-0.2-0.4-0.3-0.7-0.3c-0.4,0-0.8,0-1.2,0.1  c-0.3,0-0.6,0.1-0.6-0.3c0-0.4,0.3-0.4,0.6-0.5C87.5,50.9,87.7,51,87.8,51z M92.6,50c-0.1-0.1-0.1-0.2-0.1-0.2  c-0.3-0.2-0.6-0.3-0.9-0.5c-0.6-0.3-0.6-0.2-0.7,0.4c0,0.5,0.3,1.2-0.7,1.4c-0.3,0-0.2,0.4,0,0.6c0.4,0.4,0.8,0.2,1.1-0.1  C91.7,51.1,92.2,50.6,92.6,50z"/><path d="M52.7,23.7c-1.3-0.3-1.4-0.5-0.8-1.7c0.5-0.9,1.1-1.3,2.1-1.3c0.8,0.1,1.6-0.3,2.4-0.5c0.2,0,0.4-0.1,0.5,0.2  c0.1,0.2,0,0.3-0.1,0.4c-0.4,0.6-0.8,1.2-1.1,1.9c-0.4,0.9-1.1,1.3-1.9,1.6C53.2,24.7,53,24.6,52.7,23.7c1.5,0.3,2.4-0.4,2.9-2.3  c-0.6,0-1.2,0-1.8,0c-0.9,0-1.2,0.4-1.3,1.4c0.7-0.1,1.3-0.6,2.3-0.4C54,23,53.2,23.1,52.7,23.7z"/></svg>