<svg xmlns="http://www.w3.org/2000/svg" data-name="Слой 1" viewBox="0 0 100 115" x="0px" y="0px"><title>leaf</title><path d="M40.50324,72.27656a17.8558,17.8558,0,0,1-9.19884-1.52505c-2.41589-.9476-2.8216-.81757-3.50114,1.71092a14.4313,14.4313,0,0,0,.14156,8.3629c.71536,2.14556.01069,4.13876-.01245,6.19743-.00822.73622-.50031,1.04252-1.28169.96575-2.29523-.22545-3.42974-1.28673-3.18811-3.69555.45812-4.56787.78636-9.2245,2.83413-13.427a4.27552,4.27552,0,0,0-.41332-5.12791,18.34777,18.34777,0,0,1-3.408-8.66985,14.48176,14.48176,0,0,1,.5007-5.26209,24.41459,24.41459,0,0,1,8.98719-13.96743,36.31671,36.31671,0,0,1,11.22485-6.06432c5.88622-1.937,12.3492-4.39582,17.38957-8.00247,1.697-1.21428,13.23613-9.90834,14.48461-10.9871.47327-.40884.91771-1.034,1.58926-.6805a1.68,1.68,0,0,1,.855,1.89c-.77868,3.13261-.07731,6.26524.05457,9.36928.32847,7.72623-1.05243,15.18088-2.8817,22.60626-.45744,1.85684-6.26027,14.15059-7.64,15.35631-4.26614,3.728-8.83163,7.12936-14.31759,8.76334-2.8721.8555-5.71284,2.04189-8.81941,2.12608A13.29852,13.29852,0,0,1,40.50324,72.27656ZM73.35953,37.20027a2.66266,2.66266,0,0,0,.97389-2.1891,43.54061,43.54061,0,0,0-1.38751-14.69049,1.82423,1.82423,0,0,0-1.62976.54028C66.677,24.93038,61.16587,27.561,55.5099,29.70114a132.9268,132.9268,0,0,0-16.6936,7.0992,37.919,37.919,0,0,0-9.77693,7.99881,9.22282,9.22282,0,0,0-2.19156,4.44461,32.26563,32.26563,0,0,1-1.148,4.22265,7.62761,7.62761,0,0,0,.16,5.81924c.55166,1.24057,1.18654,2.44575,1.822,3.64685.35544.67194.35475,1.96315,1.50425,1.57139a2.03262,2.03262,0,0,0,1.149-2.34A8.31312,8.31312,0,0,1,30.3113,60.6c.19336-3.43885,3.24991-8.5412,6.11309-10.20337a6.042,6.042,0,0,1-1.50434,2.31834,27.31906,27.31906,0,0,0-3.336,6.37259c-.15494.39506-.27114.80516.2965.98588a.738.738,0,0,0,.84409-.23137c.2603-.3259.45981-.69994.71489-1.03053A47.05574,47.05574,0,0,1,45.7737,47.83836c3.09106-1.95262,6.29524-3.72694,9.37414-5.69775,4.23448-2.71055,8.41862-5.50424,11.15108-9.92343a3.55351,3.55351,0,0,1,1.23657-1.40047c2.25542-1.05831,2.4069-3.10436,2.64277-5.15568.05287-.45974-.08147-1.086.66124-1.19525.82288,2.42218-.27375,8.41524-1.84686,10.15542-.5834-.4026.011-1.34483-.99787-2.08281-.2776.48915-.47834.86412-.69837,1.22741A32.69519,32.69519,0,0,1,55.44327,45.1981c-3.78573,2.19445-7.53526,4.45139-11.30255,6.67779A34.34073,34.34073,0,0,0,32.645,63.21317c-2.51542,3.92031-2.45693,4.678,1.69477,6.70225,2.87195.02333,5.82558.99337,8.54466-.75516-2.84827.27525-5.75257-.09676-8.5508.75793.49908-.50747.32716-1.57615,1.62407-1.4342a20.727,20.727,0,0,0,4.37858-.19491c1.11622-.118,2.36855.03647,3.34067-1.00981-1.65066-.63508-3.53657.48644-5.04729-1.34763,4.39057-.01814,8.30534-.67812,11.49008-3.54868.42715-.385.85184-.52356,1.32257-.00023.61452.68312.209,1.19992-.304,1.56013a16.82936,16.82936,0,0,1-3.85406,2.0553c-.44667.16458-1.04613.42446-.86745,1.09451.17285.64833.79567.5334,1.29676.59723a10.42824,10.42824,0,0,0,6.932-1.41034A83.35742,83.35742,0,0,0,63.849,59.30989c3.72186-3.10377,4.93308-7.77408,7.48562-11.60268a12.17683,12.17683,0,0,0,1.77593-7.19609,8.57115,8.57115,0,0,1,.32394-3.4104Z"/><path d="M73.43447,37.10072c-1.15865,2.17809-1.56,4.69814-3.27543,6.67887.501-1.9428,1.02254-3.88067,1.49311-5.83079a4.95581,4.95581,0,0,0,.35714-2.43464c-.891-2.55688.86291-4.43125,1.372-7.09837,1.07234,2.205.39795,4.0009.22518,5.72832a13.92308,13.92308,0,0,0-.25307,3.06463C73.35953,37.20027,73.43447,37.10072,73.43447,37.10072Z"/><path d="M56.01959,60.29773c3.84245-1.977,7.77651-3.82631,9.84372-8.01.28067-.56788.31963-1.47536,1.54038-1.55214-2.00358,6.31456-7.93083,8.44556-12.21227,12.427-.58639-1.49166,1.07311-1.89752.93477-2.96836Z"/><path d="M58.67673,49.91212c3.06677-2.59617,3.78665-6.89478,6.81315-9.53932C63.6281,43.83245,62.70378,47.92963,58.67673,49.91212Z"/><path d="M50.732,57.77851c.67685,1.01205.04465,1.443-.77269,1.87607a19.288,19.288,0,0,1-7.80909,2.17135,6.80732,6.80732,0,0,1,3.635-1.71568c1.78869-.47242,3.59237-.913,4.9589-2.297Z"/><path d="M53.05082,49.3861c-1.51963,1.02713-3.08022,1.99988-4.544,3.10119-.92609.69668-2.28547,1.19585-1.85056,2.85027.10859.41309-.30057.486-.6199.41171a.63517.63517,0,0,1-.53-.66367,1.99946,1.99946,0,0,1,.34953-1.15511c2.09-2.00638,4.046-4.2589,7.24207-4.48694Z"/><path d="M46.55861,42.02981a53.04763,53.04763,0,0,1,7.80771-5.30263l.341.50727q-3.84911,2.67052-7.69812,5.341Q46.78383,42.30264,46.55861,42.02981Z"/><path d="M63.80156,48.19256a16.34413,16.34413,0,0,1-.96282,2.279c-1.0841,1.78782-2.1177,3.72181-4.75171,3.32074l.06.06172q2.86471-2.7993,5.727-5.60071Z"/><path d="M50.74413,57.81325c1.97783-.10437,3.17106-1.71126,4.78783-2.509.89281-.44049,1.49065-1.4186,2.615-1.45019l-.06-.06172c-1.23388,2.04827-3.31661,3.01593-5.28284,4.12193a1.76518,1.76518,0,0,1-2.06567-.12711C50.732,57.77851,50.74413,57.81325,50.74413,57.81325Z"/><path d="M65.77009,45.1002c-.10783-2.23286,1.43724-3.49144,2.87355-4.81134a11.12708,11.12708,0,0,1-2.94541,4.74348Z"/><path d="M56.12619,60.19421c-.90841-.39633-1.74258.523-2.90875.08942,1.79038-.648,3.10357-1.72483,4.75477-2.3883q-.97239,1.19777-1.9487,2.39894C56.01959,60.29773,56.12619,60.19421,56.12619,60.19421Z"/><path d="M65.69823,45.03234a5.27745,5.27745,0,0,1-1.89852,3.15849l.0744.06252a3.05923,3.05923,0,0,1,1.89383-3.15511Z"/><path d="M53.098,49.44355c-.01868-.73006.63-.62431,1.03406-.80706.286-.12937.67355-.1164.76992.19142.18076.57706-.313.58791-.687.60307-.38673.0157-.77576-.02709-1.164-.04459Z"/></svg>