<svg xmlns="http://www.w3.org/2000/svg" data-name="Ğ¡Ğ»Ğ¾Ğ¹ 1" viewBox="0 0 100 115" x="0px" y="0px"><title>dd</title><path d="M36.63964,81.97018a28.9946,28.9946,0,0,0-3.172,2.88477,31.235,31.235,0,0,1-9.27456,7.1677c-2.96314,1.6626-5.99942,3.19583-9.01751,4.75892a2.47555,2.47555,0,0,1-3.024-.82211c-.79144-1.446-.61129-2.35406.66251-3.06274a1.79089,1.79089,0,0,1,.87984-.092,6.44251,6.44251,0,0,0,2.02984.08449,31.29807,31.29807,0,0,0,3.81031-1.62755c1.12159-.53375,2.17452-1.21822,3.312-1.71081,2.65129-1.14812,4.64833-3.16608,6.77683-5.001,1.372-1.18277,2.6312-2.49643,3.83412-3.64906-2.39758-.57326-4.77259-1.0663-7.10113-1.72389a8.34129,8.34129,0,0,1-3.98812-2.66174,37.32532,37.32532,0,0,0-2.76708-2.837,12.59388,12.59388,0,0,1-3.41043-6.79,30.06367,30.06367,0,0,1,.58859-14.383,29.26859,29.26859,0,0,1,6.57875-11.9185,71.697,71.697,0,0,1,15.663-13.01984c4.99687-3.22717,10.12788-6.24638,15.19227-9.36939,2.79623-1.72432,5.59443-3.44639,8.36135-5.217Q69.313,8.66815,76.0073,4.28662c.42161-.27444.74312-.70374,1.167-.97312a1.786,1.786,0,0,1,1.05086-.3083c.19129.02.4558.44148.48884.70681.426,3.42091,1.8061,6.58262,2.64555,9.889.57635,2.27009,1.0637,4.56281,1.5881,6.846.64968,2.82854,1.36688,5.644,1.92284,8.49088.46547,2.38363.73568,4.80516,1.10228,7.20839.42452,2.783.92673,5.55605,1.27112,8.34872.32267,2.6163.49729,5.25146.71017,7.88048.14358,1.77306.26913,3.54856.35237,5.32532.17667,3.77088-1.01161,7.26925-2.22509,10.75506-.61091,1.75484-1.16788,3.53932-1.93148,5.228a28.02523,28.02523,0,0,1-8.18354,10.6379c-1.26452.99962-2.4483,2.106-3.74961,3.05276a15.83912,15.83912,0,0,1-2.667,1.436c-1.91415.8911-3.81106,1.84033-5.78617,2.57437-2.81164,1.04494-5.66332,2.0251-8.744,1.887-.54885-.02461-1.10551.05507-1.649-.00277-.77-.08192-1.53-.25383-2.29622-.37493a47.74947,47.74947,0,0,1-5.60318-.934,9.36342,9.36342,0,0,1-3.40953-1.9213A19.26271,19.26271,0,0,1,36.63964,81.97018ZM80.92164,37.661a2.802,2.802,0,0,0-1.63788,2.46935,2.44418,2.44418,0,0,0,.8277-.83546c.298-.52975.52765-1.09787.78622-1.64976.25888.05.57348.2196.76711.12944a3.4674,3.4674,0,0,0,1.51174-3.023C82.42988,35.71643,81.677,36.68933,80.92164,37.661ZM40.14153,79.10105c.4484-1.01815.65279-1.1564,1.66835-.94584a27.86114,27.86114,0,0,0,9.8426.31232c3.84059-.57077,7.73446-.86064,11.52808-1.64537a61.61618,61.61618,0,0,0,8.922-2.78274c3.62581-1.35032,6.7777-3.59792,9.95217-5.7646A4.65909,4.65909,0,0,0,84.36,64.96173c.28925-2.16848.93589-4.29534,1.14042-6.46725a52.2932,52.2932,0,0,0-.09471-5.93937c-.33976.2488-.45237.32815-.5617.41178-3.90037,2.98347-7.67992,6.14572-11.74159,8.89043a64.08441,64.08441,0,0,1-9.18812,4.87481c-3.04557,1.40008-6.22858,2.50357-9.3622,3.70873a18.14657,18.14657,0,0,1-4.20873,1.41534,6.82107,6.82107,0,0,0-3.39019,1.25108.773.773,0,0,1-.55782.02829,3.1978,3.1978,0,0,0-3.12652,1.06076c-1.23026,1.50342-2.50423,2.97111-3.76325,4.4509-.29908.35153-.61166.69157-1.04234,1.177l3.45522-.4681ZM83.37726,37.07574a6.73139,6.73139,0,0,1-.98828,1.70888c-1.47325,1.30255-3.03676,2.50262-4.55734,3.75213-1.80295,1.48153-3.514,3.092-5.417,4.43018-2.15788,1.51736-4.4711,2.81714-6.74078,4.17132-2.92373,1.74438-5.83952,3.50679-8.8239,5.14253-1.22727.67268-2.52944,1.04274-3.33133,2.41091-1.57908,2.69413-3.35012,5.27574-5.04092,7.90442-.93216,1.44923-1.86266,2.89951-2.72565,4.24306a27.28212,27.28212,0,0,0,3.26972-.7905c3.45437-1.27887,6.92693-2.53024,10.29595-4.01171a99.94042,99.94042,0,0,0,9.20838-4.61425c3.14057-1.788,6.1947-3.74976,9.15988-5.81734A31.585,31.585,0,0,0,84.52937,49.254a2.35277,2.35277,0,0,0,.50923-2.05223c-.312-2.03956-.53124-4.09339-.85-6.13176C83.98757,39.78431,83.67414,38.51615,83.37726,37.07574Zm-.42694,33.00445-.37866-.20066c-.89714.47841-1.80517.93762-2.6895,1.43864-3.30434,1.87214-6.56373,3.82752-9.91154,5.61789a27.98378,27.98378,0,0,1-9.52809,3.19158c-2.94628.38855-5.92011.60367-8.88872.77537-2.19333.12686-4.39879.1059-6.59683.05806a21.48529,21.48529,0,0,1-2.584-.43951c-.74678-.10983-1.5065-.1323-2.25274-.24489-1.36385-.20577-1.58578.044-1.16006,1.36629A11.90415,11.90415,0,0,0,44.169,88.63584a8.05144,8.05144,0,0,0,3.57385,1.2496,44.43734,44.43734,0,0,0,13.01483-1.43109,38.46009,38.46009,0,0,0,12.45459-5.85447A26.36025,26.36025,0,0,0,81.517,72.89873Q82.23456,71.48992,82.95032,70.08019ZM23.60214,43.72953A19.21244,19.21244,0,0,0,21.495,46.75759c-1.826,4.06819-3.7242,8.10684-3.88261,12.72337-.16643,4.85043.63987,9.31887,3.84179,13.18039A15.75883,15.75883,0,0,0,33.49767,78.5782a4.40218,4.40218,0,0,0,2.71766-.82766,33.5616,33.5616,0,0,0,3.31677-3.4626c-5.91561-2.55538-9.54978-7.384-12.36573-12.82548C24.33178,55.98492,23.59988,49.97463,23.60214,43.72953ZM54.03871,19.65437c-2.85208,2.03929-5.76253,4.111-8.65492,6.20754a1.21852,1.21852,0,0,0-.42287.74046,15.05445,15.05445,0,0,0-.34756,3.17086c.22772,3.40669.5151,6.81294.91631,10.20317a49.45558,49.45558,0,0,0,1.13942,6.00022c.4114,1.66907,1.0807,3.27275,1.56508,4.92611.782,2.66943,2.59817,4.69876,4.1632,7.14847,2.90066-3.53019,4.46451-7.52753,6.05388-11.22564-.51479-.3814-1.06563-.57481-1.21123-.933a35.78237,35.78237,0,0,1-2.20537-6.05949,50.81441,50.81441,0,0,1-.91972-8.22241C53.95885,27.71123,54.05257,23.80176,54.03871,19.65437ZM42.98945,27.2969c-2.40648,1.75743-4.63469,3.36161-6.82588,5.01488a1.56781,1.56781,0,0,0-.47341,1.0097c-.23916,2.32558-.549,4.65328-.606,6.98591-.0776,3.17446-.04309,6.36928,1.52376,9.29229a.55131.55131,0,0,1,.0697.31878c-.2981,1.90544.53116,3.52708,1.41509,5.07256,1.31035,2.291,2.672,4.56564,4.1954,6.71733a50.04206,50.04206,0,0,0,3.6958,4.193l6.14646-7.36956a14.91606,14.91606,0,0,1-1.864-.90857c-2.42183-1.67059-3.73582-4.20359-4.9165-6.75348a34.06684,34.06684,0,0,1-2.75262-11.05737,70.25724,70.25724,0,0,1-.02419-9.47164A30.672,30.672,0,0,1,42.98945,27.2969ZM25.81772,40.77378a11.8839,11.8839,0,0,1,.26747,1.47181,54.257,54.257,0,0,0,.30853,7.15039,45.82439,45.82439,0,0,0,2.44955,9.23115,26.96358,26.96358,0,0,0,5.62881,9.35353,38.45379,38.45379,0,0,0,5.10408,4.475c.68412.47933,1.03207.3933,1.50784-.26282,1.14443-1.57819,2.34636-3.11654,3.57229-4.6328.472-.58373.43376-.88591-.2201-1.28754a12.6757,12.6757,0,0,1-2.44547-1.81457,27.86364,27.86364,0,0,1-5.63243-7.8169,67.50061,67.50061,0,0,1-2.78882-8.07228,25.62525,25.62525,0,0,1-.823-10.47707c.11985-1.105.32457-2.20077.49043-3.30077l-.22881-.18595ZM80.989,23.14787c-3.00216,3.12566-5.8153,6.08456-8.66422,9.0086-1.53519,1.57566-3.13935,3.0839-4.69789,4.6371-1.14938,1.14544-2.7259,1.881-3.37478,3.51569a.56422.56422,0,0,1-.45044.25383c-1.39008-.06983-1.71666.999-2.11447,1.96524-.97617,2.371-1.89949,4.76413-2.90228,7.12363-.551,1.29642-1.21976,2.54278-1.89759,3.93983a3.21745,3.21745,0,0,0,.52809-.17238c2.64634-1.55836,5.398-2.96672,7.90879-4.71989,4.1304-2.88405,8.21932-5.8532,12.09728-9.06254a45.173,45.173,0,0,0,5.30782-5.96487A1.73623,1.73623,0,0,0,82.99807,32.37C82.36933,29.312,81.677,26.26709,80.989,23.14787ZM64.15791,37.01968c3.86958-4.06024,7.547-7.85664,11.14707-11.7251,1.56916-1.68617,2.99912-3.50444,4.44006-5.30453a1.57234,1.57234,0,0,0,.14825-1.13367c-.4015-2.11756-.83883-4.22872-1.293-6.33581-.44552-2.06715-.92553-4.12686-1.33443-5.94142C71.637,15.95059,68.024,26.36812,64.15791,37.01968ZM63.385,14.31686l-6.53629,3.632a61.19935,61.19935,0,0,0-.06943,13.54c.39825,4.44133.71128,8.89527,2.62408,13.33321.91364-2.02319,1.72745-3.74,2.46431-5.48932a8.95617,8.95617,0,0,0,1.06047-3.19093c-.00229-2.48852-.389-4.97394-.50986-7.466a51.24572,51.24572,0,0,1-.02408-6.2264C62.588,19.8167,63.0217,17.20161,63.385,14.31686Zm.5177,18.51788.69183.14413c2.51142-8.97653,6.44372-17.362,10.50738-25.85269-2.52641,1.54248-4.8949,3.0342-7.31185,4.44278-1.03559.60353-1.87408,1.06131-2.059,2.53888-.42,3.35646-1.38078,6.649-1.73873,10.00833A85.25925,85.25925,0,0,0,63.9027,32.83474ZM41.5805,74.12547l.497.10828,6.41235-9.47309-.24461-.17352c-.57541.82166-1.11887,1.66808-1.73246,2.46017-1.59062,2.05342-3.22416,4.07372-4.80379,6.13541C41.54143,73.40141,41.61748,73.80673,41.5805,74.12547Zm5.99006-21.28154-3.06565-7.823.829-.11231-.13649-1.00748-1.21341.35191A20.08909,20.08909,0,0,0,47.57056,52.84393ZM74.3195,28.39264l-.86017,1.28622.37505.25741c.58255-.87707,1.16732-1.7527,1.74652-2.632.21772-.33056.36595-.89352.64363-.96368.90367-.22835.69564-.89043.67039-1.54629L73.38535,28.558l.1555.16087ZM33.689,43.34349l-.44647.11739c.35562,1.77747.69014,3.55973,1.08956,5.32731.0601.266.42347.46339.64654.69252l.27-.23819Q34.46879,46.293,33.689,43.34349Zm21.86523-5.44337c.151-.11147.29627-.16388.30489-.23328.14478-1.164.56577-2.34609-.26633-3.44739-.15239-.20169-.30357-.62591-.20364-.76035.61426-.82637-.15583-1.14773-.65364-1.60227ZM84.50514,70.55005l-.26448-.12968q-2.02455,3.753-4.04909,7.506l.45648.23455Zm-29.82149-40.881.27857.09553c.2366-.29.69322-.59672.67272-.86728-.10329-1.36431-.33092-2.7192-.51492-4.07739l-.42517.05091Zm1.0214-9.79578-.51555-.04317q-.32571,2.186-.65139,4.372l.47628.07665C56.26885,22.98859,55.33138,21.31682,55.70505,19.8733Zm22.51054,5.23163c.54352-1.54695,2.36282-2.22154,2.15987-4.15052l-2.80746,3.396ZM41.36773,74.406l-.19113-.231c-.72109.75295-1.45342,1.49554-2.15912,2.26263-.44039.47868-1.07132.93338-.4454,1.71558ZM83.28513,52.1905c1.39105.72161,2.048-.26734,1.95516-2.85788C84.60247,50.26493,83.96466,51.19724,83.28513,52.1905ZM34.61456,33.34479c-.50674,1.84573-.95047,3.46193-1.45,5.28148C34.079,38.29224,34.75414,35.31768,34.61456,33.34479ZM69.63713,47.248l-.27106-.30616-3.23465,2.43553.20724.27467C67.603,49.07253,69.01929,48.69758,69.63713,47.248Zm-49.442,45.26253c2.20273-.40742,3.59084-1.70518,5.12882-2.72109-1.63875.67254-3.22607,1.444-4.81021,2.222C20.45784,92.03884,20.43369,92.13093,20.19511,92.51049Zm53.35858-48.3492C71.042,45.54643,71.042,45.54643,70.6972,46.73866,72.25344,46.19579,73.34062,45.24613,73.55369,44.16129ZM71.50777,75.62573l-.11106-.29834-5.187,1.70876.20587.55589ZM64.90553,13.75032,64.54,13.67448q-.68973,3.58543-1.37947,7.17086l.26044.05339Q64.16327,17.32453,64.90553,13.75032ZM29.16666,62.52861l.27959-.216-.71457-2.01672-1.02034.30528C28.01471,61.4652,28.26367,62.26768,29.16666,62.52861Zm55.68-25.89675-.199.0266.633,4.67226.199-.02667Zm.95659,5.85123-.23356.01334.88831,6.557.23107-.03173ZM81.43274,20.96472l.45-.13559q-.58644-2.176-1.17287-4.352l-.2863.07608ZM86.79738,58.771q-.347,1.88646-.694,3.77293C86.29789,61.2796,87.81434,60.25683,86.79738,58.771ZM43.43133,29.3626c-.101,1.01279-.20194,2.02557-.31149,3.12424C43.9849,32.11368,44.04839,31.63393,43.43133,29.3626ZM35.97367,80.33889l-.24135-.24009L33.1772,82.85028l.26051.23957ZM56.40911,40.084l-.58275.31453.90283,1.396c.15439-.1223.45893-.31754.44033-.3558C56.94365,40.97382,56.6702,40.53194,56.40911,40.084ZM72.148,60.64537l-.3412-.139-1.1372.7682.07944.33609c.3783.04408.86173.247,1.10445.08631C72.0831,61.545,72.06,61.01123,72.148,60.64537ZM86.6,54.07615l.21657.00225L86.8,49.86616l-.33213-.00162ZM76.77552,41.684l.28551.23317c.55853-.44863,1.50611-.57561,1.34753-2.00075Zm-51.44589.209-.4079-.0066-.2054,2.56346.46961.02312Q25.25778,43.183,25.32963,41.893Zm5.39666,23.55646c.06176-1.24927-.56456-2.01554-1.45465-1.94165C29.79485,64.20622,30.26057,64.82784,30.72629,65.44947ZM43.92676,41.40459l-.16823.24333,1.054,1.37471.23746-.17578-.18183-1.34214Zm26.96489-9.60275.44132.33546L72.708,30.48055l-.34787-.282ZM65.253,37.9454,66.91183,36.361C65.5057,36.06672,65.36409,37.00448,65.253,37.9454ZM76.41329,42.44l-.48443-.39478-1.19958,1.77324.29237.22408Zm1.031,14.29705.19728.26919c.95834-.03419,1.38378-.79122,1.7391-1.644Zm-49.6424,2.97119.431-.36727-.67814-1.03965-.57443.51926Zm3.82265,24.95087-.22174-.18526-1.91033,1.76194.29362.29672Z"/></svg>