<svg xmlns="http://www.w3.org/2000/svg" data-name="Слой 1" viewBox="0 0 100 115" x="0px" y="0px"><title>plant-01-01-01-01-01-01-01-01</title><g><path d="M65.52017,16.7781a2.49771,2.49771,0,0,1,.37243.85209,6.67894,6.67894,0,0,0,.55243,2.58319,2.539,2.539,0,0,1-.03983,2.028c-0.197.41538-.25814,0.89677-0.46588,1.305a3.51809,3.51809,0,0,1-.8892,1.31736A2.32411,2.32411,0,0,0,64.036,27.04388a12.7887,12.7887,0,0,1-.21752,1.80354l1.10882-.06669c-1.04638,3.48849-2.07988,6.934-3.15714,10.52552a5.77685,5.77685,0,0,0,2.94009-.64472,88.56749,88.56749,0,0,1,9.86926-4.28991,1.654,1.654,0,0,1,1.18025-.03268c-1.38869,1.55739-3.35624,2.02475-4.99939,3.0055-1.68347,1.00481-3.4512,1.86848-5.27462,2.84342,0.39466,0.09852.76469,0.19807,1.13814,0.2825a14.88505,14.88505,0,0,1,1.91476.43584,3.4177,3.4177,0,0,0,2.356.02794,2.26448,2.26448,0,0,1,2.61446.97039,3.677,3.677,0,0,1,.32706.61259,10.79735,10.79735,0,0,0,.657,1.59837A9.62029,9.62029,0,0,0,75.65358,45.409a1.03338,1.03338,0,0,1-1.27528.2509,12.93987,12.93987,0,0,0-3.19642-.46038,3.02409,3.02409,0,0,1-1.39155-.5013,1.44718,1.44718,0,0,1-.66769-1.88556c0.06487-.2184.12945-0.43688,0.21251-0.71727a3.768,3.768,0,0,0-.68971-0.40289,8.85526,8.85526,0,0,0-5.45777-.34673A6.86408,6.86408,0,0,0,60.55879,42.728c-1.70892,1.60951-3.287,3.362-4.86679,5.10322a17.54079,17.54079,0,0,0-3.06888,4.602c-0.56649,1.26051-1.392,2.41112-1.8953,3.692-0.7606,1.93582-1.35528,3.93784-1.99314,5.92052a37.15346,37.15346,0,0,0-1.17819,3.98474,20.96923,20.96923,0,0,0,.362,9.63635,26.85757,26.85757,0,0,0,2.604,7.14923,2.3705,2.3705,0,0,1,.26512.64082c0.17626,0.70349-.1353,1.07912-0.84256.91137a7.23332,7.23332,0,0,1-2.16129-.75382,18.494,18.494,0,0,1-2.93319-2.24594,4.42469,4.42469,0,0,1-1.32231-3.0949q-0.24957-4.56737-.68661-9.12385a5.30843,5.30843,0,0,0-3.01748-4.3663,3.32414,3.32414,0,0,0-1.002-.22292c-0.18878-.03044-0.38624-0.00211-0.57877-0.01517A2.93455,2.93455,0,0,1,35.196,61.67811a4.73334,4.73334,0,0,0-.88637-2.81,0.514,0.514,0,0,1,.00487-0.50359,0.70074,0.70074,0,0,1,.59536-0.13883c1.00813,0.82041,2.32745,1.01247,3.385,1.70568a4.08994,4.08994,0,0,1,1.82123,2.455c0.112,0.44843.17973,0.908,0.29395,1.35572a1.36221,1.36221,0,0,0,.26833.61449c0.64823,0.65266,1.3281,1.27392,2.133,2.03581a13.23078,13.23078,0,0,0,.2484-1.48713c0.07179-1.42738.0465-2.86151,0.1643-4.28429a29.43422,29.43422,0,0,0-.166-5.6657c-0.16825-1.53279-.30361-3.07371-0.35144-4.61419a15.60155,15.60155,0,0,0-1.87-6.87051,4.48332,4.48332,0,0,0-2.60052-2.34377,3.75226,3.75226,0,0,1-2.68941-2.49321,4.57364,4.57364,0,0,1-.244-1.57915,8.40747,8.40747,0,0,0-.14941-3.43141,0.46715,0.46715,0,0,1,.09395-0.21339c0.52021-.17632.68857,0.21076,0.81931,0.56816a6.11762,6.11762,0,0,0,1.92574,2.41889,14.12155,14.12155,0,0,1,1.18325,1.10836,2.47006,2.47006,0,0,1,.685,2.44962,1.50706,1.50706,0,0,0,.47066,1.664,8.471,8.471,0,0,1,1.76767,2.96173,3.56339,3.56339,0,0,0,.75581,1.19818,10.59341,10.59341,0,0,0,.235-1.776c-0.09438-2.89414-.20177-5.789-0.37951-8.67892-0.11811-1.9204-.36224-3.83305-0.55413-5.79161a5.93152,5.93152,0,0,0,.71243-0.5114,1.42277,1.42277,0,0,0,.50069-1.72791c-0.46113-1.16808-.77346-2.3942-1.18373-3.58369a2.75383,2.75383,0,0,0-.48563-0.63832,3.45372,3.45372,0,0,1-.074-4.66359,3.20409,3.20409,0,0,0,.90753-2.18232,0.53826,0.53826,0,0,1,.65137-0.62191,0.51516,0.51516,0,0,1,.417.78285,1.54666,1.54666,0,0,0,.25058,1.5103,14.37651,14.37651,0,0,1,.89675,2.25209,3.2435,3.2435,0,0,1-.70454,3.34293,1.96637,1.96637,0,0,0-.43071,2.19691,37.74,37.74,0,0,1,1.16557,5.18773c0.29526,2.21252.29832,4.46252,0.54072,6.684,0.34522,3.16358.05273,6.3329,0.20735,9.49416,0.062,1.26742.29209,2.52744,0.46246,3.78856q0.372,2.75372.77129,5.50372c0.03151,0.21989.11106,0.43289,0.21654,0.831,0.21922-.35206.3603-0.55744,0.48029-0.7745a70.89092,70.89092,0,0,1,6.54339-9.95335,26.01514,26.01514,0,0,1,2.58507-2.81446,17.08414,17.08414,0,0,0,3.8184-6.15736,50.66022,50.66022,0,0,0,1.87085-5.47437A27.211,27.211,0,0,0,63.229,27.6a8.02218,8.02218,0,0,0-.30294-2.81842,9.74559,9.74559,0,0,1-.62084-3.03683,4.68982,4.68982,0,0,1,2.015-3.8403A12.38414,12.38414,0,0,0,65.52017,16.7781ZM44.98873,49.14988L45.007,49.16982A2.14853,2.14853,0,0,0,44.2767,47.319c0.15689-1.24488.32424-2.48855,0.46549-3.73519a11.56508,11.56508,0,0,0,.0742-1.49885q-0.039-2.24491-.128-4.48871a0.90747,0.90747,0,0,0-.26282-0.484,1.65438,1.65438,0,0,1-.10081-1.293,6.21405,6.21405,0,0,0-.53961-1.31971,0.88547,0.88547,0,0,1,.295-0.51878c0.26376-.31779.31858-0.67788-0.05909-0.85535a0.87321,0.87321,0,0,1-.48337-0.94969c-0.00333-.901.01938-1.802,0.0316-2.70685-0.77188.39545-.66542,1.111-0.58381,1.84932,0.16469,1.49021.29087,2.98467,0.43567,4.47711a3.58267,3.58267,0,0,0,.61764,2.38477,1.33732,1.33732,0,0,1,.0865.55622c0.0961,0.486.1742,0.97816,0.312,1.4526a1.49853,1.49853,0,0,1-.21636,1.60187L43.82816,40.646a10.0899,10.0899,0,0,0,.30674,3.09481,2.73815,2.73815,0,0,1,.0662,1.7877,1.98614,1.98614,0,0,0,.09057,1.781c-0.16485.55709-.63785,0.06494-0.94931,0.21642,0.09087,1.28271.14975,2.51591,0.27719,3.742,0.06335,0.60951-.1833,1.33342.52678,1.7751a0.76,0.76,0,0,1,.06093.43921c0.05308,1.03987.17313,2.08274,0.13264,3.1192-0.04059,1.03907-.28279,2.06867-0.36448,3.10811-0.12079,1.53657-.18038,3.078-0.25569,4.61793a0.64384,0.64384,0,0,0,.11376.26289l0.71963-.31035c-0.05672,1.34289-.09978,2.60506-0.16955,3.86575a0.96906,0.96906,0,0,1-.58417,1.10141V67.52177l-0.15377.00555c0.12139,2.58516.24277,5.17033,0.36631,7.80095a2.662,2.662,0,0,1,1.03058,2.54335l-0.68738.22008c0.29169,2.18892.18131,2.35111,2.99616,4.40056a2.89687,2.89687,0,0,0,2.42878.8367c-0.23263-.5093-0.44125-0.91888-0.6105-1.34413a38.9102,38.9102,0,0,1-2.5541-9.838A18.0837,18.0837,0,0,1,47.13,65.01708q0.95749-3.34036,2.03767-6.64524a22.44765,22.44765,0,0,1,2.31811-5.41753c0.72671-1.1213,1.30137-2.34115,2.04247-3.6969a2.125,2.125,0,0,0-.94246.23936,4.92314,4.92314,0,0,0-.98468,1.78932,16.05116,16.05116,0,0,1-2.14992,4.71432,2.01706,2.01706,0,0,1-.55455.42664,1.85854,1.85854,0,0,1,.45537-1.4657c0.18211-.415.40909-0.81039,0.61638-1.21438a1.51535,1.51535,0,0,0-.66929.69362c-0.59489,1.12647-1.17617,2.26012-1.76529,3.38965a0.87229,0.87229,0,0,1-.83483.68065,0.7574,0.7574,0,0,1-.57169-0.8799q-0.43829-3.26779-.86974-6.53648C45.171,50.44589,45.07852,49.79807,44.98873,49.14988ZM61.882,36.18105L61.7977,36.1047c-0.62973,1.3506-1.26384,2.69921-1.88356,4.05439a1.02167,1.02167,0,0,0-.09839.54738c0.15663,0.99355.118,1.09824-.74836,1.51924a5.53242,5.53242,0,0,0-2.40069,2.42395,3.18834,3.18834,0,0,1-1.749,1.79154,1.09277,1.09277,0,0,0-.49546,1.64636c0.28253-.30565.53487-0.57485,0.78309-0.84781,1.37549-1.51238,2.74414-3.031,4.12675-4.53688a10.44963,10.44963,0,0,1,3.65523-2.116c1.4179-.649,2.80021-1.37577,4.198-2.06865l-0.10538-.21234c-0.81748.39839-1.61106,0.86091-2.45914,1.17727-0.86323.322-1.77937,0.503-2.67376,0.7404-0.97165.25793-1.228,0.03182-.97659-0.94582C61.23826,38.23624,61.57521,37.21253,61.882,36.18105Zm2.64291-15.09811c-0.09863,1.2382-.67715,2.21485-0.22253,3.25289,1.6039-1.09432,1.86-3.62772.617-5.6715a3.59392,3.59392,0,0,0-1.58249,4.66625C63.59473,22.57348,63.48383,21.67143,64.52488,21.08294ZM35.60265,59.57075c0.19788,1.126.30055,1.99847,0.51565,2.84226a1.65014,1.65014,0,0,0,1.342,1.28654c0.50546,0.09182,1.02294.11741,1.6239,0.18214A2.28616,2.28616,0,0,0,37.762,62.70784c-0.701-.36265-0.716-0.43579-0.48719-1.15944,0.66518,0.422,1.33726.84827,2.22395,1.41071C38.91615,60.82294,37.36425,60.28166,35.60265,59.57075Zm7.38213-39.95037a10.09547,10.09547,0,0,0-.15347,1.78755,10.50833,10.50833,0,0,0,.463,1.78526,3.46244,3.46244,0,0,0-.3476-4.98108c-1.47186,1.39463-1.78371,2.83083-.85479,3.89994C42.27495,21.25914,41.84755,20.2143,42.98479,19.62038ZM39.07939,39.973a1.85016,1.85016,0,0,0-.54016-2.01281c-0.69515-.70092-1.46026-1.33247-2.20963-2.00638-0.79607,1.892.03035,3.88042,1.896,4.26472-0.3287-.47221-0.57359-0.84034-0.83555-1.19589a0.93474,0.93474,0,0,1-.1805-1.38Zm33.79656,3.4752L72.6528,43.696a2.87335,2.87335,0,0,1-.64717-0.31634c-0.26153-.2203-0.45528-0.51916-0.70619-0.75437-0.556-.52123-0.90672-0.53212-1.24345-0.07072a1.0146,1.0146,0,0,0,.198,1.50659,3.14016,3.14016,0,0,0,1.19741.34219c0.73165,0.05369,1.47009.01515,2.197,0.01515-0.96547-2.37935-.96547-2.37935-1.84816-2.65051Zm-9.479-12.7831L63.54,30.71245l0.26143-.76571-0.15427-.052Zm5.87526,6.86774-0.09436-.177-0.4317.25872,0.06648,0.12828Z"/><path d="M44.46285,63.64091c0.06515-1.11933.12062-2.23941,0.2072-3.35709a1.366,1.366,0,0,1,.31033-0.46542,4.59078,4.59078,0,0,1-.251,3.85238Z"/><path d="M44.48963,70.31864a6.40922,6.40922,0,0,1,.26419,3.75866C44.09165,73.92166,44.303,73.377,44.265,72.9748c-0.04348-.45987-0.02541-0.92524-0.05749-1.38659C44.17767,71.15961,43.82079,70.68305,44.48963,70.31864Z"/><path d="M45.40937,67.96679a4.41392,4.41392,0,0,1-.23294-3.58634A5.60552,5.60552,0,0,1,45.40937,67.96679Z"/><path d="M44.98873,49.14988a15.20921,15.20921,0,0,0-.32992,1.68221,12.40041,12.40041,0,0,0,.07113,1.63537,1.12319,1.12319,0,0,1-.71277-1.208c0.04236-.57056.13649-1.13762,0.21769-1.70485,0.07039-.49153.40271-0.48095,0.77214-0.38485Z"/><path d="M45.50737,58.18005c-0.63557-.39352-0.70886-0.73344-0.4586-2.12656C45.5715,56.38955,45.6647,56.82171,45.50737,58.18005Z"/><path d="M45.93584,79.88257c1.07962,0.01523,1.2373.2268,1.06864,1.27982A2.61865,2.61865,0,0,1,45.93584,79.88257Z"/><path d="M47.44,59.34618a1.73119,1.73119,0,0,1-.13917,1.59107A1.60421,1.60421,0,0,1,47.44,59.34618Z"/><path d="M47.94119,57.72344l0.50283-.84635c0.311,0.64977.11594,0.87862-.18557,1.05962Z"/></g></svg>