<svg xmlns="http://www.w3.org/2000/svg" xmlns:xlink="http://www.w3.org/1999/xlink" version="1.1" x="0px" y="0px" viewBox="0 0 100 115" style="enable-background:new 0 0 100 100;" xml:space="preserve"><path d="M83.1,9.9c0.2,0.5-0.3,0.6-0.3,1c0.2,0,0.4,0,0.5,0c1.6-0.6,2.8-1.8,4.2-2.7c1.1-0.7,2.1-1.5,3.1-2.3  c0.5-0.4,0.9-0.7,0.8,0.3c0,0.6,0.5,0.3,0.7,0.2c1.1-0.5,2.3-0.9,3.5-0.9c-1.1,0.9-2.4,1.2-3.7,1.7c-1.4,0.5-2.6,1.3-3.8,2  c-1.3,0.7-2.4,1.6-3.9,2c0.5,0.5,0.9,0.3,1.2,0.2c1.7-0.6,3.5-1.1,5.2-1.8c0.3-0.1,0.6-0.3,0.7,0c0.2,0.4-0.2,0.6-0.5,0.7  c-0.8,0.3-1.5,0.7-2.3,0.9c-2.2,0.5-4.2,1.4-6.3,2.1c-0.9,0.3-1.8,0.6-2.7,0.9c-0.5,0.1-0.9,0.2-1.2,0.7c-0.3,0.5-0.9,0.6-1.4,0.8  c-1.1,0.4-2.1,0.8-3.2,1.3c3.6,0.7,7.2,1.2,10.9,0.8c0.7-0.1,1.4-0.2,1.8-1c0.2-0.4,0.6-0.7,0.9-0.9c1.1-0.7,2.2-1.5,3.3-2.3  c0.5-0.4,0.5-0.4,1.5,0.2c-1.7,0.9-3.4,1.9-4.6,3.3c0.2,0.4,0.4,0.3,0.6,0.2c1.1-0.7,2.4-0.3,3.5-0.7c0.5-0.1,1.1-0.1,1.7,0.1  c1.1,0.4,2.1,0.2,2.9-0.6c0.2-0.1,0.4-0.3,0.6-0.2c0.2,0.2,0.2,0.4,0,0.6c-0.8,0.9-1.8,1.5-2.9,1.2c-1.3-0.4-2.5-0.3-3.8-0.2  c-1.4,0.1-2.8,0.3-4.3,0.8c1.4,1.3,3,2.1,4.8,2.2c0.8,0.1,1.6,0.2,2.2,0.7c0.2,0.2,0.5,0.4,0.3,0.7c-0.1,0.3-0.5,0.3-0.7,0.1  c-0.9-0.6-2-0.7-3-0.9c-0.9-0.1-1.9-0.4-2.6-1c-0.8-0.7-1.6-0.9-2.6-0.6C83.7,19.7,83,20,82.9,19c0-0.5-0.5-0.3-0.8-0.3  c-2.3,0.1-4.6-0.2-6.9-0.6c-3.2-0.6-6,0.7-8.6,2.4c-2.4,1.6-4.7,3.1-6.9,5c-3.3,2.8-6.9,5.2-9.6,8.7c-2.3,3-4.8,5.8-6.7,9.1  c-0.3,0.6-0.8,1.1-0.7,1.8c0.4,0.4,0.8,0,1.1-0.2c2-1.7,4.5-2,6.8-2.9c2-0.8,4.1-1.5,6-2.4c0.6-0.2,1.1-0.5,1.7-0.6  c1.6-0.5,2.7-2.1,2.4-3.8c-0.2-0.9,0.2-1.6,0.4-2.4c0.3-0.9,0.9-1.2,1.6-1.5c0.5-0.3,1-0.7,1.5-1c0.3-0.2,0.6-0.4,0.9-0.1  c0.3,0.2,0.1,0.5,0,0.8c-0.2,0.5-0.2,1.1,0,1.6c0.3,0.8-0.1,1.4-0.7,1.9c-0.7,0.5-1.5,1.1-2.3,1.4c-0.6,0.2-0.8,0.6-0.9,1.1  c0,0.3-0.2,0.6,0,0.8c0.3,0.3,0.6,0.1,0.9,0c2.2-1,4.5-1.8,6.9-2.4c1.3-0.3,2.4-1,3-2.2c1.5-2.9,4.1-4.1,6.9-5.1  c1.2-0.4,2.5-0.9,3.8-0.8c0.1,0.6-0.3,0.4-0.5,0.5c-2.1,0.6-4.3,1.2-6.2,2.3c-1.3,0.7-2.3,1.7-3,3c-0.4,0.7-0.8,1.3-1.2,2  c2-0.8,4.1-1.1,6-2.5c0.3,0.9-0.4,1.2-0.9,1.4c-1.7,0.8-3.5,1.5-5.2,2.1c-4.5,1.5-9,2.9-13.4,4.4c-0.5,0.2-1.1,0.1-1.4,0.8  c0.3,0.2,0.6,0.1,0.9,0.1c3.5-0.6,6.9-1.2,10.4-0.4c1.2,0.3,2.4-0.3,3.7-0.4c-1.3,1.2-2.8,1.1-4.2,1c-5.7-0.6-11.3,0.4-16.7,2.2  c-1.2,0.4-2.2,1-3.1,1.9c-0.9,0.9-2.2,1.3-3.3,1.8c-2.6,1.4-4.7,3.4-6.5,5.9c-1.2,1.6-2.4,3.2-3.3,4.9c-1.6,2.8-3,5.7-4.6,8.7  c0.7,0.2,1-0.3,1.4-0.5c1.8-1.3,3.6-2.6,5.7-3.5c3.7-1.5,7.5-2.5,11.3-3.7c-3.4,2.2-7.6,2.7-11,4.9c0.2,0.5,0.4,0.4,0.6,0.3  c1.4-0.7,3-0.6,4.4-0.4c2.6,0.3,5.1,0.5,7.8-0.5c-1.5,1.1-3.2,1.6-4.9,1.5c-2-0.1-4-0.6-6-0.2c-2.5,0.6-4.7,1.5-6.8,3  c-1.9,1.4-3.8,2.8-5.3,4.5c-0.4,0.4-0.8,0.8-1,1.3c-1,3.6-2.7,6.9-3.2,10.7c-0.1,0.8-0.3,1.5-1.2,1.9c2,0.5,3.2,2.7,5.8,2.3  c-1.2,0.8-0.3,1.5-0.2,2.1c-0.2,0.1-0.3,0.2-0.4,0.1c-0.9-1.3-2.5-1.4-3.6-2.2c-0.8-0.5-1.7-0.5-2.6-0.1c-0.6,0.3-1.1,0.3-1.7,0.1  c-0.8-0.3-1.7-0.3-2.6-0.2c-1,0.1-2.1,0.4-3.1-0.3c-0.2-0.2-0.5-0.1-0.8,0.1c-0.8,0.4-1.7,0.6-2.6,0.6c-0.9,0.1-1.9,0.8-2.7,1.5  c-0.5,0.4-0.9,0.9-1.6,1c-0.5,0.1-0.8,0.6-1.2,0.9c-0.3,0.2-0.5,0.8-1.1,0.4c-0.6-0.5-0.7-1-0.1-1.5c0.9-0.9,1.8-1.7,3-2.1  c1.4-0.5,2.6-1.4,3.7-2.4c1.4-1.3,2.8-2.5,4.2-3.9c1.2-1.2,2.5-2.3,2.9-4.1c0-0.1,0-0.1,0.1-0.1c1.8-0.5,2.1-2.3,2.9-3.6  c1.9-3.1,3.7-6.3,5.4-9.6c0.7-1.4,1.2-2.8,1.4-4.3c0.2-1.5,0.8-2.9,0.5-4.4c0-0.2,0-0.3,0.1-0.5c1-2.4,1.2-5.1,1.9-7.6  c0.2-0.8,0.3-1.7,1.3-2.1c0.6-0.2,0.6-1.1,0.7-1.8c0.3-1.8,0.6-3.5,0.7-5.3c0-0.5-0.1-1,0.6-1.5c0.2,1.6,0,3.1,0.1,4.6  c0.8-1,1.7-1.8,2.7-2.5c0.1-0.1,0.2-0.2,0.2-0.3c-0.5-1.5,0.6-1.2,1.4-1.4c0.3-0.1,0.5-0.4,1-0.2c-2.5,2.7-4.8,5.4-6.5,8.9  c1.4,0.2,2.3-0.8,3.5-0.7c0.1,0.5-0.3,0.6-0.5,0.7c-0.5,0.2-0.9,0.3-1.4,0.5c-1.3,0.5-2.3,1.2-2.6,2.8c-0.2,1.3-0.8,2.4-1,3.7  c-0.2,1-0.4,1.9,0.2,2.9c0.3,0.5-0.2,1.1,0.1,1.6c0.2,0,0.4-0.2,0.5-0.4c1.1-2.7,2.6-5.3,4-7.9c2-3.7,4.1-7.2,6.2-10.8  c0.3-0.4,0.3-1.1,1.1-1c0.3,0,0.4-0.5,0.5-0.8c0.9-1.4,1.2-3.1,1.9-4.6c2.6-5.7,6.5-10.4,11-14.6c2.5-2.3,4.9-4.6,7.8-6.5  c0.5-0.3,1-0.7,1.9-0.8c-2.1,1.7-4.3,2.8-6.1,4.8c2.6-0.6,4.9-1.2,7.2-1.7c-1.2,0.9-2.6,1.4-4,1.6c-2.2,0.4-4.2,1.4-5.9,2.9  c-1.2,1.1-2.5,2.2-3.7,3.3c-1.9,1.6-3.4,3.7-4.7,5.8c-0.8,1.3-0.6,3-1.6,4.5c0.8-0.1,1-0.5,1.3-0.8c2-2.4,4.4-4.5,6.7-6.7  c3.2-3.1,7-5,10.9-7c1.9-1,4.1-1.4,6.1-2.2c3.4-1.3,6.8-2.8,9.7-5C82,10.3,82.5,10,83.1,9.9z M24.5,74.5c-1.5,1.7-2.9,3.4-4.5,4.9  c-0.9,0.9-1.7,1.8-2.6,2.6c-1.3,1.1-2.6,2.3-3.8,3.4c-0.6,0.5-1.1,1-1.7,1.6c1.5-0.3,2.8-0.6,4.2-0.2c2,0.6,3.4-0.1,4.4-1.9  c0.1-0.2,0.3-0.5,0.5-0.7c0.9-0.6,0.9-1.5,0.8-2.4c-1,0.4-1.4,1.3-2,2c-0.7,0.8-1.7-0.1-2.3,0.7c0.7-1.7,2.8-4.4,3.8-5.1  c-0.3,0.8-1,1.4-1.4,2.1c-0.1,0.1,0,0.3,0,0.5c0.2,0.2,0.4,0.2,0.6,0c0.8-1,2.1-1.6,2.5-2.8C23.6,77.7,24.4,76.2,24.5,74.5z   M51.7,29.7c-4.5,4.1-8.1,8.9-11.2,14.2c0.2,0,0.3,0,0.3,0c0.9-1,1.9-2,2.8-3c0.7-0.7,1.1-1.6,1.6-2.5c0.8-1.6,2-3.1,3.1-4.5  C49.4,32.5,50.8,31.3,51.7,29.7z M61.6,34.7c0.5-0.2,0.8-1.2,1.6-0.6c0.2,0.1,0.5-0.2,0.7-0.4c0.7-0.7,0.4-1.3,0.2-2.1  C62,32.6,61.8,32.8,61.6,34.7z M41.8,48c3.5-2,3-1.5,3.5-2.9C43.3,45.7,43.1,46,41.8,48z M39.5,46.9c-0.8,0.6-1.7,1.1-2,2.4  C38.7,48.8,38.9,47.7,39.5,46.9z M63.1,21.1c-1.3,0.1-1.8,0.4-2.4,1.6C61.6,22,62.5,22,63.1,21.1z M28.1,67.7  c-0.9,0.3-1.2,1-1.6,1.5c-0.1,0.1-0.1,0.3,0.1,0.4c0.1,0.1,0.3,0.1,0.4,0C27.5,69,27.8,68.4,28.1,67.7z M55.7,26.3  c-1.1,0.3-1.6,0.8-1.8,1.6C54.6,27.5,55.2,27.1,55.7,26.3z M21.1,77.3c0.8-0.4,1-1.1,1.2-1.7C21.9,76.1,21.3,76.5,21.1,77.3z   M28.5,62.2c0.1,0.2,0.1,0.2,0.2,0.1c0.7-0.7,0.7-0.7,0.5-1.5C28.7,61.2,28.6,61.7,28.5,62.2z M20.6,87.6c-0.2-0.3-0.4-0.2-0.7-0.2  c-0.1,0-0.4,0-0.3,0.3c0.1,0.3,0.4,0.3,0.7,0.2C20.5,87.9,20.6,87.8,20.6,87.6z M30.4,63.3c-0.6,0.4-1,0.6-0.8,1.3  C30.1,64.3,30.3,64,30.4,63.3z M47.1,44.5c-0.1,0-0.1-0.1-0.2-0.1c-0.3,0-0.5,0.1-0.7,0.3c-0.1,0.1-0.1,0.3,0.1,0.4  c0.2,0.1,0.4-0.1,0.6-0.2C47,44.7,47,44.6,47.1,44.5z M23.3,81.5c0.5-0.3,0.4-0.7,0.3-1.2C23.5,80.8,23.1,81.1,23.3,81.5z   M57.3,24.8c-0.1,0-0.2-0.1-0.3-0.1c-0.1,0.1-0.3,0.3-0.4,0.5c0,0.1,0.1,0.1,0.3,0.1C57.1,25.2,57.2,25,57.3,24.8z M65.3,19.8  c-0.5-0.2-0.7,0.1-0.9,0.4C64.9,20.4,65.1,20.1,65.3,19.8z"/><path d="M54.3,58.6c0.5,0,0.7,0.3,0.9,0.6c1.1,1.2,2.2,1,3.3,0c0.7-0.6,1.3-1.4,1.8-2.3c-1-0.7-1.8-1.7-3.1-2  c-1.3-0.3-2.6,0.3-3.1,1.3c-0.4,0.8-0.2,1,0.6,1c0.9-0.1,1.8-0.2,2.7-0.1c0.4,0,0.8,0,0.9,0.8c-1.9-0.3-3.7,0.4-5.4,0.1  c-0.2-0.6,0.1-0.8,0.2-1.1c0.9-2.9,3.5-3.9,6-2.2c1.1,0.8,2.1,1.3,3.5,1.1c0.3-0.1,0.6,0.1,0.6,0.4c0.1,0.3-0.2,0.5-0.4,0.6  c-1.4,0.3-1.9,1.6-2.7,2.5c-0.6,0.7-1.2,1.3-2.1,1.6c-1.4,0.6-3.2-0.1-3.8-1.5C54.1,59,54.1,58.8,54.3,58.6z"/><path d="M69.2,10.3c-1.8-0.4-1.9-0.8-1.1-2.3c0.6-1.2,1.5-1.9,2.9-1.8c1.2,0.1,2.3-0.4,3.4-0.6c0.3-0.1,0.6-0.1,0.7,0.2  c0.1,0.2,0,0.4-0.1,0.6c-0.5,0.9-1.1,1.7-1.5,2.6c-0.6,1.2-1.6,1.8-2.7,2.3C69.7,11.7,69.5,11.5,69.2,10.3c2.1,0.4,3.4-0.6,4.1-3.2  c-0.8,0-1.6,0-2.5,0c-1.2,0.1-1.7,0.6-1.9,2c1-0.1,1.8-0.9,3.3-0.5C71,9.2,69.8,9.4,69.2,10.3z"/></svg>