<svg xmlns="http://www.w3.org/2000/svg" data-name="Слой 1" viewBox="0 0 100 115" x="0px" y="0px"><title>tree</title><path d="M38.62183,15.98529a3.25117,3.25117,0,0,1,1.243.74774c-.77582.46021-1.27985-.00458-1.81061-.23175-.26312-.11255-.52576-.16632-.66077.13349-.12793.28405.06507.48925.30225.63537a4.581,4.581,0,0,0,2.02478.80756,7.16219,7.16219,0,0,1,5.11346,2.99005c2.14045,2.56421,4.5326,4.91534,6.48676,7.63531.69519.96766,1.32623,1.98133,2.14423,3.21112a6.14368,6.14368,0,0,1-2.01984-1.11737c-1.69318-1.01367-3.63715-1.58984-5.13513-2.94256a.737.737,0,0,0-.26728-.15906c-.2005-.061-.43469-.12006-.57183.08655a.39154.39154,0,0,0,.1347.54114c.82068.64593,1.64008,1.29382,2.473,1.92382a19.5427,19.5427,0,0,0,5.16913,3.20142,4.34853,4.34853,0,0,1,2.1402,1.98987,21.45206,21.45206,0,0,1,2.305,6.45489,41.03285,41.03285,0,0,1,.68085,7.63044c.13183,2.32415.09332,4.65893.308,6.982a.65366.65366,0,0,1-.13684.60071c-.46069-.16266-.50177-.63684-.61615-.9914-.72-2.2315-1.98938-4.24926-2.53131-6.55059a2.28407,2.28407,0,0,0-.48547-.79718c-3.05469-3.89862-6.01349-7.87494-9.32019-11.57007-.33545-.37476-.55762-.91284-1.28718-.95819.06122,1.45861,1.62946,1.96264,1.9693,3.24756-.456.07574-.57525-.25409-.799-.54578-1.10156-1.4361-2.35144-2.67127-4.30053-2.848A4.40593,4.40593,0,0,1,39.585,35.449c-.36749-.19073-.673-.23468-.97229.11585-.261.30572-.15289.549.0434.83221a23.18369,23.18369,0,0,1,1.664,3.007,2.50518,2.50518,0,0,0,1.88537,1.49042c.66468.1142,1.29621.42487,1.96113.53308.548.08917,1.27844.31079,1.64117-.16028.521-.67675.85181-.36767,1.41132-.11657,1.21722.54626,1.84826,1.64807,2.676,2.56134a35.3567,35.3567,0,0,1,3.03,4.17431c.51855.77381.91376,1.63025,1.35278,2.42792-.39563.44147-.71545.13586-1.0332.032a32.373,32.373,0,0,1-5.249-2.01428,3.76461,3.76461,0,0,0-1.34284-.40564A8.23444,8.23444,0,0,1,43.027,46.554c-.24213-.16108-.51239-.51386-.7619-.09638-.19312.32306.09894.57983.35577.76489A8.65036,8.65036,0,0,0,45.11163,48.52c.28553.08838.62647.0711.77277.39563-.07709.46014-.41956.38733-.72473.441a7.59865,7.59865,0,0,0-1.19959.326c-1.938.683-2.31878,1.51837-1.40869,3.31756a6.33188,6.33188,0,0,1,.73535,2.53351.6051.6051,0,0,0,.42707.59558c.28222.0719.48236-.14361.62225-.37823a6.99232,6.99232,0,0,1,2.55737-2.46942c1.03516-.61,1.11646-1.64618.39191-2.678-.15009-.21381-.34222-.40088-.47308-.62482-.21375-.36584-.02539-.58081.32684-.69378a1.6032,1.6032,0,0,1,1.21179.17889,41.02836,41.02836,0,0,0,4.40839,1.61334A14.365,14.365,0,0,1,55.001,52.188a1.90757,1.90757,0,0,1,.884,1.04706,29.16081,29.16081,0,0,1,1.44922,5.75024,12.80782,12.80782,0,0,1-.28565,5.28076c-.3385,1.32868-1.03668,2.6709-.2641,4.08533-.381,1.014-.18371,2.16394-.70422,3.20288-.16833-.13782-.34729-.2102-.39227-.33209-.86023-2.33191-2.47058-4.22766-3.73322-6.32019a21.65443,21.65443,0,0,0-2.779-3.17243.41139.41139,0,0,0-.67542.00666c-.15728.19861-.02075.37219.07.56378a42.08444,42.08444,0,0,0,2.79267,4.93317c.35632.54772,1.02185.91992,1.10607,1.89544a19.717,19.717,0,0,0-2.74511.02613c-1.061.1513-1.58521-.87928-2.55536-1.11109.46258,1.5365.96826,1.99176,2.23688,2.02283.83551.02045,1.67291-.05286,2.50946-.05353a2.41762,2.41762,0,0,1,2.46392,1.32825,1.45183,1.45183,0,0,0,.39386.4815A3.04948,3.04948,0,0,1,55.71,74.93359c-.46869,3.408-1.64416,6.68818-1.81122,10.14808-.00494.10327-.03393.20526-.0484.30828-.07239.51557-.73932,1.02643-.07922,1.54767a3.57473,3.57473,0,0,0,3.14435.9801c.37835-.09094.45324-.38586.4588-.71759.05182-3.13183.88769-6.24121.60589-9.35308a35.02594,35.02594,0,0,1,.40644-7.91138,5.549,5.549,0,0,0,.02014-1.56586c-.33972-2.19452.43921-4.22772.8349-6.31872.097-.51258.24676-1.01892.39526-1.52558.00385-.28137.00989-.56262.03021-.84332a10.41248,10.41248,0,0,1,.41065-2.09949,3.95322,3.95322,0,0,0-.173-.83691c.50579-1.37335.67858-2.83484,1.1007-4.22669.43988-1.45019,1.01984-2.85614,1.3537-4.337a8.58555,8.58555,0,0,1,.51258-2.97168c.31225-.78339.88971-1.40351,1.17614-2.19141a6.48155,6.48155,0,0,1,.589-1.39825c-.05169-.17969.09223-.3714.239-.49671.923-.78839.59649-1.94732.87408-2.92584a.392.392,0,0,0-.25348-.49969.4221.4221,0,0,0-.60529.3009,2.95614,2.95614,0,0,0-.18939.90814,3.70168,3.70168,0,0,1-1.35876,2.567c-.21308-.65723-.36188-1.25525-.50775-1.85517a3.4803,3.4803,0,0,1,.25219-2.58807c.14246-.25574.29834-.66266.67658-.45422.81164.44726,1.52258-.1294,2.27441-.18677,1.06226-.08093,1.70691-1.121,1.79486-2.42273.07648-1.13239-.39422-2.26428.07642-3.41107.13849-.33753-.356-.61054-.60657-.40436-.93768.77118-2.11755.85876-3.18084,1.26855a2.21476,2.21476,0,0,0-1.15729,3.121c.41937.88073.19043,1.34423-.61713,1.87152-.31433-1.02954-.03729-2.117-.53546-3.04157-.071-.13177-.04376-.314-.10529-.45373a.57138.57138,0,0,0-.59967-.40222.59023.59023,0,0,0-.50738.51544,3.80008,3.80008,0,0,0,.14209,2.16485A24.33518,24.33518,0,0,1,62.10547,43.647a6.4935,6.4935,0,0,1-2.2179,5.19709c-.72247-1.67457-.574-3.3689-.8363-4.9842a25.43539,25.43539,0,0,0-2.888-8.86248,63.17745,63.17745,0,0,1-2.87347-6.0636,30.9444,30.9444,0,0,0-2.182-3.43036c-.3327-.54651-.37665-.906.21936-1.28638a11.02656,11.02656,0,0,0,1.93658-2.21222,1.44693,1.44693,0,0,0-.06213-2.00848c-.52051-.65228-1.11163-1.24768-1.6477-1.88812-.39417-.471-.9043-.91773-.494-1.65332a.42849.42849,0,0,0-.23029-.64325.54083.54083,0,0,0-.75561.33667c-.82,1.79815-1.94373,3.51641-1.37134,5.629-.57208.17218-.70715-.27014-.96008-.48272-1.074-.90259-2.00239-2.00977-3.4375-2.39466a.55606.55606,0,0,1-.28071-.12811c-1.74517-2.15033-4.399-2.929-6.60907-4.37549a12.85292,12.85292,0,0,1-2.84436-2.1911c-.16888-.19476-.45837-.324-.66381-.04175-.13465.18518-.00281.38306.15368.543A17.07556,17.07556,0,0,0,38.62183,15.98529ZM63.59039,33.65521a1.42875,1.42875,0,0,1,1.09119-1.64215c.39856-.11273.81445-.16363,1.2215-.24743.60388-.12427.87774.13006.87133.73461-.00329.31177.02381.62378.02619.93573.013,1.69672-.35059,2.04-2.22028,2.00275a3.30075,3.30075,0,0,1,.83637-1.41058c.14209-.19721.01916-.39478-.13886-.54352a.28267.28267,0,0,0-.40967.01959,3.98,3.98,0,0,0-.41253.46332c-.12647.15875-.2301.37048-.47663.30194C63.68134,34.18671,63.61884,33.91351,63.59039,33.65521ZM46.341,52.459c-.56359.36872-1.10614.76984-1.65649,1.1587a.51277.51277,0,0,1-.80139-.12738A7.48574,7.48574,0,0,1,43.323,52.558c-.67072-1.34765-.32855-1.81951,1.36664-1.88952.07263.49188-.2995.86035-.364,1.31a.40356.40356,0,0,0,.28992.47723.34182.34182,0,0,0,.47028-.26459,2.55009,2.55009,0,0,1,.41705-.99475c.35522-.44226.68457-.41443.97211.05945C46.73419,51.68311,46.8905,52.09949,46.341,52.459ZM45.14172,40.75867c-2.81451.07208-4.59314-1.28888-4.65893-3.71912a3.84243,3.84243,0,0,1,3.06952,1.14307c-.60681.1178-.87915-.23993-1.22345-.436-.17548-.1-.40515-.16723-.54895.06391a.43457.43457,0,0,0,.09161.56183A8.396,8.396,0,0,0,43.93543,39.749C44.38312,39.98022,45.02173,40.05994,45.14172,40.75867Zm5.23774-22.55561a14.3741,14.3741,0,0,1,2.16027,2.46058.82354.82354,0,0,1,.04706,1.02288,6.10907,6.10907,0,0,1-1.37457,1.6698c-.99609-.93243.12128-1.88867-.07977-2.781-.75373-.06324-.648.77441-1.201,1.00134C49.21265,20.37775,49.52643,19.32983,50.37946,18.20306Z"/><path d="M41.74769,65.5968a9.03967,9.03967,0,0,1,.12657.93164,9.2304,9.2304,0,0,0,.491,2.75536c.30214.64485-.06965.97956-.79893.79059a11.60923,11.60923,0,0,1-3.33009-1.28007A3.64665,3.64665,0,0,1,36.56748,64.265a4.59091,4.59091,0,0,0,.18072-1.38082c.01268-.36563.01448-.73187.01149-1.09776a.64643.64643,0,0,1,.67743-.7025c.38076-.00176.45711.36364.44258.6991-.01326.30591-.04147.61119-.06891.9992C40.08783,62.87488,41.2756,63.75643,41.74769,65.5968Zm-3.65086,1.89893a7.32692,7.32692,0,0,0,2.5353,1.19165c.31986.07972.42733-.26522.39579-.52931a9.54179,9.54179,0,0,0-.724-3.48579,1.41525,1.41525,0,0,0-1.20245-.88235,1.0712,1.0712,0,0,0-1.05473.53733c-.16328.30739.06976.60969.26205.85167a6.75437,6.75437,0,0,0,1.78582,1.5101.348.348,0,0,1,.15075.5208c-.1565.21686-.37087.15765-.54845.02729-.75232-.55226-1.49739-1.11441-2.38651-1.77856A2.38314,2.38314,0,0,0,38.09683,67.49573Z"/><path d="M34.35736,38.23389c.20977.0113.41337.09408.40429.35822-.00859.24982-.20238.34369-.41165.39159a3.14794,3.14794,0,0,1-1.69594-.11006,2.73025,2.73025,0,0,0-2.38942.1712,1.60427,1.60427,0,0,1-2.108-.46595,6.37892,6.37892,0,0,1-1.71529-3.44827,20.24952,20.24952,0,0,0-.34009-2.9243c-.1647-.59573.27585-.89922.81667-.56069a11.0879,11.0879,0,0,0,2.87969,1.13217A3.99974,3.99974,0,0,1,31.88139,34.076a3.5711,3.5711,0,0,1,.48563,3.71368A4.34619,4.34619,0,0,0,34.35736,38.23389Zm-6.74994-1.863a2.24133,2.24133,0,0,0,2.83193,1.70546,26.90962,26.90962,0,0,1-2.49215-3.37148c.43439-.40032.76018-.17586,1.03645.16261.39318.48165.75619.98778,1.13764,1.47915a2.24054,2.24054,0,0,0,1.3675.94056c.70958-2.58186-.35615-3.64006-4.1959-4.12966A9.47873,9.47873,0,0,0,27.60742,36.37091Z"/></svg>